<svg xmlns="http://www.w3.org/2000/svg" viewBox="0 0 500 500"><g id="freepik--background-complete--inject-58"><g><g><g><path d="M443.92,331.97h-180.75c-3.23,0-5.86-2.63-5.86-5.86V62.84c0-3.23,2.63-5.86,5.86-5.86h180.75c3.23,0,5.86,2.63,5.86,5.86V326.11c0,3.23-2.63,5.86-5.86,5.86ZM263.17,57.23c-3.09,0-5.61,2.52-5.61,5.61V326.11c0,3.09,2.52,5.61,5.61,5.61h180.75c3.09,0,5.61-2.52,5.61-5.61V62.84c0-3.09-2.52-5.61-5.61-5.61h-180.75Z" style="fill:#e0e0e0;"></path><path d="M235.49,331.97H54.75c-3.23,0-5.86-2.63-5.86-5.86V62.84c0-3.23,2.63-5.86,5.86-5.86H235.49c3.23,0,5.86,2.63,5.86,5.86V326.11c0,3.23-2.63,5.86-5.86,5.86ZM54.75,57.23c-3.09,0-5.61,2.52-5.61,5.61V326.11c0,3.09,2.52,5.61,5.61,5.61H235.49c3.09,0,5.61-2.52,5.61-5.61V62.84c0-3.09-2.52-5.61-5.61-5.61H54.75Z" style="fill:#e0e0e0;"></path></g><rect x="0" y="393.04" width="500" height=".25" style="fill:#e0e0e0;"></rect></g><rect x="51.67" y="407.31" width="16.06" height=".25" style="fill:#e0e0e0;"></rect><rect x="170.35" y="404.6" width="53.53" height=".25" style="fill:#e0e0e0;"></rect><rect x="68.73" y="416.6" width="36.25" height=".25" style="fill:#e0e0e0;"></rect><rect x="378.35" y="404.47" width="43.19" height=".25" style="fill:#e0e0e0;"></rect><rect x="430.45" y="404.47" width="6.33" height=".25" style="fill:#e0e0e0;"></rect><rect x="316.21" y="410.7" width="53.89" height=".25" style="fill:#e0e0e0;"></rect></g><g id="freepik--freepik--background-complete--inject-31--inject-58"><path d="M350.34,115.6l-1.15-.25-1.46,6.93-3.81,9.97-3.11-1.79,1.94-5.11,1.46,.85,.6-1.04-1.65-.95,.61-1.61,3.11-14.86-1.15-.24-3.11,14.77-.51,1.34-3.7-2.16-.6,1.04,3.88,2.26-1.93,5.11-.21-.12-.59,1.04,.37,.22-2.94,7.75-1.17-.18-.18,1.17,.92,.13-.28,.75v6.31h-.59v1.18h.59v6.65h-.59v1.2h.59v6.64h-.59v1.18h.59v6.65h-.59v1.18h.59v9.59h1.18v-9.59h3.93v9.59h1.18v-9.59h.59v-1.18h-.59v-6.65h.59v-1.18h-.59v-6.64h.59v-1.18h-.59v-6.65h.59v-1.18h-.59v-6.17l.43,.06,.18-1.17h-.18l2.13-5.63,.86,.5,.59-1.04-1.04-.6,3.87-10.24,1.51-7.04Zm-9.53,54.79h-3.84v-6.65h3.84v6.65Zm0-7.83h-3.84v-6.61h3.84v6.61Zm0-7.82h-3.84v-6.65h3.84v6.65Zm0-14.14v6.31h-3.84v-6.09l.29-.79,3.56,.53v.04Zm.44-1.17l-3.57-.53,2.77-7.32,3.11,1.79-2.31,6.06Z" style="fill:#e6e6e6;"></path><g><polygon points="213.25 104.52 151.74 104.52 145.33 112.03 149 112.03 149 128.64 149 128.64 144.57 139.71 149 139.71 149 156.32 141.23 156.32 141.23 167.39 149 167.39 149 183.99 138.44 183.99 138.44 180.29 131.9 182.75 131.9 263.62 145.76 273.86 162.85 258.74 176.69 271.85 162.85 268.4 146.26 286.42 131.9 278.39 131.9 393.4 213.25 393.4 213.25 236.6 206.38 244.73 205.36 239.35 195.81 239.35 195.81 222.75 202.19 222.75 200.08 211.68 195.81 211.68 195.81 195.07 196.9 195.07 195.81 189.31 198.04 183.99 195.81 183.99 195.81 167.39 205.02 167.39 213.25 147.83 213.25 104.52" style="fill:#ebebeb;"></polygon><rect x="157.57" y="112.03" width="10.57" height="16.61" style="fill:#fafafa;"></rect><rect x="195.81" y="112.03" width="10.57" height="16.61" style="fill:#fafafa;"></rect><rect x="176.69" y="139.71" width="10.57" height="16.61" style="fill:#fafafa;"></rect><rect x="195.81" y="139.71" width="10.57" height="16.61" style="fill:#fafafa;"></rect><rect x="176.69" y="167.39" width="10.57" height="16.61" style="fill:#fafafa;"></rect><rect x="157.57" y="195.07" width="10.57" height="16.61" style="fill:#fafafa;"></rect><rect x="176.69" y="195.07" width="10.57" height="16.61" style="fill:#fafafa;"></rect><rect x="138.44" y="222.76" width="10.57" height="16.61" style="fill:#fafafa;"></rect><rect x="157.57" y="222.76" width="10.57" height="16.61" style="fill:#fafafa;"></rect><rect x="176.69" y="250.43" width="10.57" height="16.61" style="fill:#fafafa;"></rect><rect x="195.81" y="250.43" width="10.57" height="16.61" style="fill:#fafafa;"></rect><rect x="157.57" y="278.12" width="10.57" height="16.61" style="fill:#fafafa;"></rect><rect x="195.81" y="278.12" width="10.57" height="16.61" style="fill:#fafafa;"></rect><rect x="138.44" y="305.79" width="10.57" height="16.61" style="fill:#fafafa;"></rect><rect x="176.69" y="305.79" width="10.57" height="16.61" style="fill:#fafafa;"></rect><rect x="195.81" y="305.79" width="10.57" height="16.61" style="fill:#fafafa;"></rect><rect x="138.44" y="333.48" width="10.57" height="16.61" style="fill:#fafafa;"></rect><rect x="157.57" y="333.48" width="10.57" height="16.61" style="fill:#fafafa;"></rect><rect x="195.81" y="333.48" width="10.57" height="16.61" style="fill:#fafafa;"></rect><rect x="157.57" y="361.15" width="10.57" height="16.61" style="fill:#fafafa;"></rect><rect x="176.69" y="361.15" width="10.57" height="16.61" style="fill:#fafafa;"></rect></g><g><path d="M224.25,240.03l3.87,10.24-1.04,.6,.59,1.04,.86-.5,2.13,5.63h-.18l.18,1.17,.43-.06v6.17h-.59v1.18h.59v6.65h-.59v1.18h.59v6.64h-.59v1.18h.59v6.65h-.59v1.18h.59v9.59h1.18v-9.59h3.93v9.59h1.18v-9.59h.59v-1.18h-.59v-6.65h.59v-1.18h-.59v-6.64h.59v-1.2h-.59v-6.65h.59v-1.18h-.59v-6.31l-.28-.75,.92-.13-.18-1.17-1.17,.18-2.94-7.75,.37-.22-.59-1.04-.21,.12-1.93-5.11,3.88-2.26-.6-1.04-3.7,2.16-.51-1.34-3.11-14.77-1.15,.24,3.11,14.86,.61,1.61-1.65,.95,.6,1.04,1.46-.85,1.94,5.11-3.11,1.79-3.81-9.97-1.46-6.93-1.15,.25,1.51,7.04Zm8.02,41.1h3.84v6.65h-3.84v-6.65Zm0-7.79h3.84v6.61h-3.84v-6.61Zm0-7.86h3.84v6.65h-3.84v-6.65Zm-.01-7.53l3.56-.53,.29,.79v6.09h-3.84v-6.35Zm-2.76-7.19l3.11-1.79,2.77,7.32-3.57,.53-2.31-6.06Z" style="fill:#e6e6e6;"></path><polygon points="281.9 251.58 287.35 262.8 281.9 262.8 286.02 271.32 275.83 259.58 281.9 259.58 275.31 249.63 259.63 249.63 244.93 253.9 237.11 249.63 227.88 259.24 227.88 393.04 291.37 393.04 291.37 255.38 281.9 251.58" style="fill:#e0e0e0;"></polygon><rect x="232.99" y="262.8" width="8.25" height="8.53" style="fill:#fafafa;"></rect><rect x="247.91" y="262.8" width="8.25" height="8.53" style="fill:#fafafa;"></rect><rect x="262.84" y="262.8" width="8.25" height="8.53" style="fill:#fafafa;"></rect><rect x="232.99" y="277.01" width="8.25" height="8.53" style="fill:#fafafa;"></rect><rect x="262.84" y="277.01" width="8.25" height="8.53" style="fill:#fafafa;"></rect><rect x="277.77" y="277.01" width="8.25" height="8.53" style="fill:#fafafa;"></rect><rect x="232.99" y="291.22" width="8.25" height="8.53" style="fill:#fafafa;"></rect><rect x="247.91" y="291.22" width="8.25" height="8.53" style="fill:#fafafa;"></rect><rect x="277.77" y="291.22" width="8.25" height="8.53" style="fill:#fafafa;"></rect><rect x="232.99" y="305.42" width="8.25" height="8.53" style="fill:#fafafa;"></rect><rect x="247.91" y="305.42" width="8.25" height="8.53" style="fill:#fafafa;"></rect><rect x="262.84" y="305.42" width="8.25" height="8.53" style="fill:#fafafa;"></rect><rect x="247.91" y="319.63" width="8.25" height="8.53" style="fill:#fafafa;"></rect><rect x="262.84" y="319.63" width="8.25" height="8.53" style="fill:#fafafa;"></rect><rect x="277.77" y="319.63" width="8.25" height="8.53" style="fill:#fafafa;"></rect><rect x="232.99" y="333.85" width="8.25" height="8.53" style="fill:#fafafa;"></rect><rect x="247.91" y="333.85" width="8.25" height="8.53" style="fill:#fafafa;"></rect><rect x="277.77" y="333.85" width="8.25" height="8.53" style="fill:#fafafa;"></rect><rect x="247.91" y="348.06" width="8.25" height="8.53" style="fill:#fafafa;"></rect><rect x="262.84" y="348.06" width="8.25" height="8.53" style="fill:#fafafa;"></rect><rect x="277.77" y="348.06" width="8.25" height="8.53" style="fill:#fafafa;"></rect><rect x="232.99" y="362.27" width="8.25" height="8.53" style="fill:#fafafa;"></rect><rect x="247.91" y="362.27" width="8.25" height="8.53" style="fill:#fafafa;"></rect><rect x="262.84" y="362.27" width="8.25" height="8.53" style="fill:#fafafa;"></rect><rect x="247.91" y="376.49" width="8.25" height="8.53" style="fill:#fafafa;"></rect><rect x="277.77" y="376.49" width="8.25" height="8.53" style="fill:#fafafa;"></rect></g><g><polygon points="365.62 176.29 375.32 166.81 375.32 124.76 325.32 154.71 328.54 160.82 323.57 169.66 324.05 169.66 324.05 182.39 335.1 198.38 324.05 214.37 324.05 227.1 320.8 227.1 328.54 280.12 319.83 276.86 310.39 290.83 310.39 394.23 375.32 394.23 375.32 283.7 365.62 290.11 352.92 284.29 348.49 298.82 350.36 330.93 342.85 308.85 326.81 320.91 342.85 302.21 350.36 277.79 365.62 284.29 375.32 277.21 375.32 177.73 369.84 182.91 350.36 178.71 342.85 186.75 350.36 173.09 365.62 176.29" style="fill:#ebebeb;"></polygon><rect x="330.88" y="169.66" width="8.43" height="13.25" style="fill:#fafafa;"></rect><rect x="346.14" y="147.57" width="8.43" height="13.25" style="fill:#fafafa;"></rect><rect x="346.14" y="191.75" width="8.43" height="13.25" style="fill:#fafafa;"></rect><rect x="361.41" y="191.75" width="8.43" height="13.25" style="fill:#fafafa;"></rect><rect x="330.88" y="213.85" width="8.43" height="13.25" style="fill:#fafafa;"></rect><rect x="346.14" y="213.85" width="8.43" height="13.25" style="fill:#fafafa;"></rect><rect x="330.88" y="235.94" width="8.43" height="13.25" style="fill:#fafafa;"></rect><rect x="361.41" y="235.94" width="8.43" height="13.25" style="fill:#fafafa;"></rect><rect x="330.88" y="258.04" width="8.43" height="13.25" style="fill:#fafafa;"></rect><rect x="346.14" y="258.04" width="8.43" height="13.25" style="fill:#fafafa;"></rect><rect x="361.41" y="258.04" width="8.43" height="13.25" style="fill:#fafafa;"></rect><rect x="330.88" y="280.12" width="8.43" height="13.25" style="fill:#fafafa;"></rect><rect x="315.61" y="302.21" width="8.43" height="13.25" style="fill:#fafafa;"></rect><rect x="361.41" y="302.21" width="8.43" height="13.25" style="fill:#fafafa;"></rect><rect x="330.88" y="324.31" width="8.43" height="13.25" style="fill:#fafafa;"></rect><rect x="361.41" y="324.31" width="8.43" height="13.25" style="fill:#fafafa;"></rect><rect x="315.61" y="346.4" width="8.43" height="13.25" style="fill:#fafafa;"></rect><rect x="330.88" y="346.4" width="8.43" height="13.25" style="fill:#fafafa;"></rect><rect x="361.41" y="346.4" width="8.43" height="13.25" style="fill:#fafafa;"></rect><rect x="330.88" y="368.49" width="8.43" height="13.25" style="fill:#fafafa;"></rect><rect x="346.14" y="368.49" width="8.43" height="13.25" style="fill:#fafafa;"></rect></g></g><g><polygon points="464.66 297.9 461.12 271.15 458.65 236.01 450.73 203.07 443.1 203.07 443.1 392.71 474.21 392.71 474.21 300.39 468.2 294.78 464.66 297.9" style="fill:#e0e0e0;"></polygon><g id="freepik--freepik--building-3--inject-31--inject-58"><path d="M462.79,212.48l3.02,.55,.22-1.16-2.99-.55,.74-3.47-1.16-.24-.74,3.51-3.11-.57-.22,1.16,3.11,.56-.51,2.41-.1,.79-3.73-.68,3.11-14.78-1.16-.24-3.11,14.8-.99-.18-.22,1.16,1.04,.19-2.07,16.05v40.45h1.18v-40.38l1.1-8.67,3.74,.69-1.04,7.9v40.45h1.18v-40.38l.99-7.77,2.25,.41,.22-1.16-2.31-.43,.77-6.06h.15l.22-1.16h-.22l.1-.81,.55-2.4Zm-2.69,10.24l-3.74-.68,.77-6.06,3.74,.68-.77,6.06Z" style="fill:#e0e0e0;"></path><path d="M480.11,234.23l-1.15-.25-1.46,6.93-3.81,9.97-3.11-1.79,1.94-5.11,1.46,.85,.6-1.04-1.65-.95,.61-1.61,3.11-14.86-1.15-.24-3.11,14.77-.51,1.34-3.7-2.16-.6,1.04,3.88,2.26-1.93,5.11-.21-.12-.59,1.04,.37,.22-2.94,7.75-1.17-.18-.18,1.17,.92,.13-.28,.75v6.31h-.59v1.18h.59v6.65h-.59v1.2h.59v6.64h-.59v1.18h.59v6.65h-.59v1.18h.59v9.59h1.18v-9.59h3.93v9.59h1.18v-9.59h.59v-1.18h-.59v-6.65h.59v-1.18h-.59v-6.64h.59v-1.18h-.59v-6.65h.59v-1.18h-.59v-6.17l.43,.06,.18-1.17h-.18l2.13-5.63,.86,.5,.59-1.04-1.04-.6,3.87-10.24,1.51-7.04Zm-9.53,54.79h-3.84v-6.65h3.84v6.65Zm0-7.83h-3.84v-6.61h3.84v6.61Zm0-7.82h-3.84v-6.65h3.84v6.65Zm0-14.14v6.31h-3.84v-6.09l.29-.79,3.56,.53v.04Zm.44-1.17l-3.57-.53,2.77-7.32,3.11,1.79-2.31,6.06Z" style="fill:#e6e6e6;"></path><path d="M386.41,213.7l3.87,10.24-1.04,.6,.6,1.04,.85-.5,2.13,5.63h-.18l.18,1.17,.44-.06v6.17h-.59v1.18h.59v6.65h-.59v1.18h.59v6.64h-.59v1.22h.59v6.65h-.59v1.18h.59v9.59h1.18v-9.59h3.84v9.59h1.18v-9.59h.59v-1.18h-.59v-6.65h.59v-1.18h-.59v-6.64h.59v-1.18h-.59v-6.65h.59v-1.18h-.59v-6.31l-.29-.75,.92-.13-.18-1.17-1.17,.18-2.84-7.79,.38-.22-.6-1.04-.2,.12-1.94-5.11,3.88-2.26-.6-1.04-3.7,2.17-.5-1.34-3.11-14.78-1.15,.25,3.11,14.86,.6,1.6-1.65,.96,.6,1.04,1.47-.86,1.93,5.12-3.11,1.79-3.78-9.96-1.45-6.93-1.16,.25,1.48,7Zm8.07,41.17h3.84v6.65h-3.84v-6.65Zm0-7.82h3.84v6.64h-3.84v-6.64Zm0-7.83h3.84v6.65h-3.84v-6.65Zm0-7.53l3.56-.53,.3,.79v6.09h-3.84v-6.31l-.02-.04Zm-2.73-7.23l3.11-1.79,2.77,7.32-3.56,.53-2.32-6.06Z" style="fill:#ebebeb;"></path><path d="M383.45,311.04v-40.54l-2.07-15.96,1.04-.2-.21-1.16-.99,.19-3.11-14.81-1.15,.25,3.11,14.77-3.74,.69-.1-.84-.5-2.35,3.11-.57-.21-1.16-3.11,.57-.75-3.51-1.15,.25,.74,3.47-2.99,.55,.21,1.16,3.03-.56,.5,2.34,.1,.85h-.21l.21,1.16h.16l.77,6.05-2.31,.43,.22,1.17,2.24-.41,1.04,7.69v40.45h1.18v-40.51l-1.04-7.83,3.74-.68,1.1,8.59v40.45h1.15Zm-6.22-49.53l-.77-6.06,3.74-.68,.77,6.06-3.74,.68Z" style="fill:#e0e0e0;"></path><polygon points="378.33 273.42 386.2 257.77 391.11 257.77 392.69 263.03 388.96 272.24 383.24 273.42 378.33 273.42" style="fill:#e0e0e0;"></polygon><polygon points="383.24 273.42 391.11 257.77 399 260.82 407.66 256.48 407.66 275.58 383.24 273.42" style="fill:#e0e0e0;"></polygon><polygon points="391.51 239.16 395.06 218.08 402.14 218.08 405.69 203.07 409.63 203.07 409.63 213.76 409.63 231.08 407.66 239.16 405.1 240.6 395.45 239.16 391.51 239.16" style="fill:#e0e0e0;"></polygon><polygon points="391.51 239.16 395.06 218.08 402.14 218.08 405.69 203.07 409.63 203.07 409.63 213.76 409.63 231.08 407.66 239.16 405.1 240.6 395.45 239.16 391.51 239.16" style="fill:#e0e0e0; isolation:isolate;"></polygon><polygon points="395.45 239.16 399 218.08 406.08 218.08 409.63 203.07 417.47 212.45 415.32 219.08 415.32 240.6 395.45 239.16" style="fill:#e0e0e0;"></polygon><polygon points="395.45 239.16 399 218.08 406.08 218.08 409.63 203.07 417.47 212.45 415.32 219.08 415.32 240.6 395.45 239.16" style="fill:#e0e0e0; isolation:isolate;"></polygon><polygon points="428.51 203.07 416.82 207.95 411.8 219.46 404.51 227.03 404.51 236.89 390.03 236.89 388.17 243.39 388.17 248.7 404.51 248.7 404.51 269.97 383.24 269.97 383.24 269.9 380.19 271.15 374.32 271.15 374.32 392.71 443.1 392.71 443.1 203.07 428.51 203.07" style="fill:#e0e0e0;"></polygon><polygon points="428.51 203.07 416.82 207.95 411.8 219.46 404.51 227.03 404.51 236.89 390.03 236.89 388.17 243.39 388.17 248.7 404.51 248.7 404.51 269.97 383.24 269.97 383.24 269.9 380.19 271.15 374.32 271.15 374.32 392.71 443.1 392.71 443.1 203.07 428.51 203.07" style="fill:#e6e6e6; isolation:isolate;"></polygon><rect x="383.24" y="317.22" width="21.26" height="21.26" style="fill:#f5f5f5; isolation:isolate;"></rect><rect x="413.17" y="317.22" width="21.26" height="21.26" style="fill:#f5f5f5; isolation:isolate;"></rect><rect x="383.24" y="284.15" width="21.26" height="21.26" style="fill:#f5f5f5; isolation:isolate;"></rect><rect x="413.17" y="284.15" width="21.26" height="21.26" style="fill:#f5f5f5; isolation:isolate;"></rect><rect x="413.17" y="251.07" width="21.26" height="21.26" style="fill:#f5f5f5; isolation:isolate;"></rect><rect x="413.17" y="217.99" width="21.26" height="21.26" style="fill:#f5f5f5; isolation:isolate;"></rect><polygon points="474.21 310.23 466.14 310.23 468.65 322.24 455.31 340.95 457.18 354.93 451.76 369.5 452.61 392.71 474.21 392.71 474.21 310.23" style="fill:#ebebeb; isolation:isolate;"></polygon><rect x="459.49" y="339.22" width="5.02" height="2.51" style="fill:#e0e0e0;"></rect><rect x="462.99" y="335.39" width="5.02" height="2.51" style="fill:#e0e0e0;"></rect><rect x="462.99" y="343.06" width="5.02" height="2.51" style="fill:#e0e0e0;"></rect><rect x="466.14" y="339.22" width="5.02" height="2.51" style="fill:#e0e0e0;"></rect><rect x="460.73" y="356.8" width="5.02" height="2.51" style="fill:#e0e0e0;"></rect><rect x="463.87" y="352.96" width="5.02" height="2.51" style="fill:#e0e0e0;"></rect><rect x="454.08" y="371.3" width="5.02" height="2.51" style="fill:#e0e0e0;"></rect><rect x="457.57" y="367.46" width="5.02" height="2.51" style="fill:#e0e0e0;"></rect><rect x="464.26" y="367.46" width="5.02" height="2.51" style="fill:#e0e0e0;"></rect><rect x="457.57" y="375.13" width="5.02" height="2.51" style="fill:#e0e0e0;"></rect><rect x="464.26" y="375.13" width="5.02" height="2.51" style="fill:#e0e0e0;"></rect><rect x="460.73" y="371.3" width="5.02" height="2.51" style="fill:#e0e0e0;"></rect><rect x="457.57" y="383.04" width="5.02" height="2.51" style="fill:#e0e0e0;"></rect><rect x="461.07" y="379.2" width="5.02" height="2.51" style="fill:#e0e0e0;"></rect><rect x="461.07" y="386.88" width="5.02" height="2.51" style="fill:#e0e0e0;"></rect><rect x="467.76" y="386.88" width="5.02" height="2.51" style="fill:#e0e0e0;"></rect><rect x="464.22" y="383.04" width="5.02" height="2.51" style="fill:#e0e0e0;"></rect><g style="opacity:.2;"><rect x="459.49" y="339.22" width="5.02" height="2.51" style="fill:#e0e0e0;"></rect><rect x="462.99" y="335.39" width="5.02" height="2.51" style="fill:#e0e0e0;"></rect><rect x="462.99" y="343.06" width="5.02" height="2.51" style="fill:#e0e0e0;"></rect><rect x="466.14" y="339.22" width="5.02" height="2.51" style="fill:#e0e0e0;"></rect><rect x="460.73" y="356.8" width="5.02" height="2.51" style="fill:#e0e0e0;"></rect><rect x="463.87" y="352.96" width="5.02" height="2.51" style="fill:#e0e0e0;"></rect><rect x="454.08" y="371.3" width="5.02" height="2.51" style="fill:#e0e0e0;"></rect><rect x="457.57" y="367.46" width="5.02" height="2.51" style="fill:#e0e0e0;"></rect><rect x="464.26" y="367.46" width="5.02" height="2.51" style="fill:#e0e0e0;"></rect><rect x="457.57" y="375.13" width="5.02" height="2.51" style="fill:#e0e0e0;"></rect><rect x="464.26" y="375.13" width="5.02" height="2.51" style="fill:#e0e0e0;"></rect><rect x="460.73" y="371.3" width="5.02" height="2.51" style="fill:#e0e0e0;"></rect><rect x="457.57" y="383.04" width="5.02" height="2.51" style="fill:#e0e0e0;"></rect><rect x="461.07" y="379.2" width="5.02" height="2.51" style="fill:#e0e0e0;"></rect><rect x="461.07" y="386.88" width="5.02" height="2.51" style="fill:#e0e0e0;"></rect><rect x="467.76" y="386.88" width="5.02" height="2.51" style="fill:#e0e0e0;"></rect><rect x="464.22" y="383.04" width="5.02" height="2.51" style="fill:#e0e0e0;"></rect></g><rect x="383.24" y="317.22" width="4.29" height="21.26" style="fill:#e0e0e0;"></rect><rect x="413.17" y="317.22" width="4.29" height="21.26" style="fill:#e0e0e0;"></rect><rect x="383.24" y="284.15" width="4.29" height="21.26" style="fill:#e0e0e0;"></rect><rect x="413.17" y="284.15" width="4.29" height="21.26" style="fill:#e0e0e0;"></rect><rect x="413.17" y="251.07" width="4.29" height="21.26" style="fill:#e0e0e0;"></rect><rect x="413.17" y="217.99" width="4.29" height="21.26" style="fill:#e0e0e0;"></rect><g style="opacity:.3;"><rect x="383.24" y="317.22" width="4.29" height="21.26" style="fill:#e0e0e0;"></rect><rect x="413.17" y="317.22" width="4.29" height="21.26" style="fill:#e0e0e0;"></rect><rect x="383.24" y="284.15" width="4.29" height="21.26" style="fill:#e0e0e0;"></rect><rect x="413.17" y="284.15" width="4.29" height="21.26" style="fill:#e0e0e0;"></rect><rect x="413.17" y="251.07" width="4.29" height="21.26" style="fill:#e0e0e0;"></rect><rect x="413.17" y="217.99" width="4.29" height="21.26" style="fill:#e0e0e0;"></rect></g><rect x="380.01" y="350.65" width="42.67" height="6.51" style="fill:#e0e0e0;"></rect><rect x="380.01" y="350.65" width="42.67" height="6.51" style="fill:#e0e0e0; isolation:isolate;"></rect><rect x="422.68" y="350.65" width="13.63" height="6.51" style="fill:#e0e0e0;"></rect><rect x="422.68" y="350.65" width="13.63" height="6.51" style="fill:#e0e0e0; isolation:isolate;"></rect><rect x="383.07" y="357.18" width="5.92" height="35.44" style="fill:#e0e0e0;"></rect><rect x="383.07" y="357.18" width="5.92" height="35.44" style="fill:#e0e0e0; isolation:isolate;"></rect><rect x="416.7" y="362.02" width="19.6" height="30.6" style="fill:#e0e0e0;"></rect><rect x="416.7" y="362.02" width="19.6" height="30.6" style="fill:#ebebeb; isolation:isolate; opacity:.2;"></rect><rect x="397.09" y="362.02" width="19.6" height="30.6" style="fill:#e0e0e0;"></rect><rect x="397.09" y="362.02" width="19.6" height="30.6" style="fill:#e0e0e0; isolation:isolate; opacity:.1;"></rect><polygon points="406.9 367.05 404.8 372.69 409.14 377.73 408.61 382.76 413.49 380.49 416.7 381.21 416.7 362.02 405.8 362.02 406.9 367.05" style="fill:#f5f5f5; isolation:isolate;"></polygon><polygon points="436.31 392.61 436.31 377.52 431.86 374.17 430.98 377.73 427.51 377.32 429 384.34 423.36 387.01 428.8 389.09 427.84 392.61 436.31 392.61" style="fill:#ebebeb; isolation:isolate;"></polygon><polygon points="383.07 375.23 384.6 374.17 385.48 374.9 388.08 371.99 389 372.97 389 357.18 383.07 357.18 383.07 375.23" style="fill:#e0e0e0;"></polygon><polygon points="383.07 375.23 384.6 374.17 385.48 374.9 388.08 371.99 389 372.97 389 357.18 383.07 357.18 383.07 375.23" style="fill:#e0e0e0; isolation:isolate;"></polygon><rect x="419.71" y="357.18" width="5.92" height="35.44" style="fill:#e0e0e0;"></rect><rect x="419.71" y="357.18" width="5.92" height="35.44" style="fill:#e0e0e0; isolation:isolate;"></rect></g></g><g><polygon points="141.13 286.5 137.17 256.53 134.4 217.16 125.53 180.27 116.98 180.27 116.98 392.71 151.83 392.71 151.83 289.29 145.11 283 141.13 286.5" style="fill:#e0e0e0;"></polygon><g id="freepik--freepik--building-3--inject-31-2--inject-58"><path d="M139.04,190.81l3.38,.62,.24-1.3-3.35-.62,.82-3.89-1.3-.27-.82,3.93-3.49-.64-.24,1.3,3.49,.63-.57,2.7-.12,.88-4.18-.77,3.49-16.56-1.3-.27-3.49,16.58-1.1-.2-.24,1.3,1.16,.21-2.32,17.98v45.32h1.32v-45.24l1.23-9.71,4.19,.78-1.16,8.85v45.32h1.32v-45.24l1.1-8.7,2.52,.46,.24-1.3-2.59-.48,.86-6.79h.16l.24-1.3h-.24l.12-.91,.62-2.68Zm-3.01,11.47l-4.19-.77,.86-6.79,4.19,.77-.86,6.79Z" style="fill:#e0e0e0;"></path><path d="M158.44,215.17l-1.29-.28-1.64,7.76-4.26,11.17-3.49-2.01,2.17-5.73,1.64,.95,.67-1.16-1.85-1.07,.69-1.8,3.49-16.65-1.29-.27-3.49,16.55-.57,1.5-4.15-2.42-.67,1.16,4.35,2.53-2.16,5.73-.23-.14-.66,1.16,.42,.24-3.29,8.68-1.31-.2-.2,1.31,1.03,.15-.31,.84v7.06h-.66v1.32h.66v7.45h-.66v1.35h.66v7.44h-.66v1.32h.66v7.45h-.66v1.32h.66v10.75h1.32v-10.75h4.4v10.75h1.32v-10.75h.66v-1.32h-.66v-7.45h.66v-1.32h-.66v-7.44h.66v-1.32h-.66v-7.45h.66v-1.32h-.66v-6.91l.48,.07,.2-1.31h-.2l2.38-6.31,.96,.56,.66-1.16-1.16-.67,4.33-11.47,1.7-7.89Zm-10.68,61.38h-4.3v-7.45h4.3v7.45Zm0-8.77h-4.3v-7.4h4.3v7.4Zm0-8.76h-4.3v-7.45h4.3v7.45Zm0-15.84v7.06h-4.3v-6.82l.33-.88,3.99,.59v.05Zm.49-1.31l-4-.59,3.1-8.2,3.49,2.01-2.59,6.79Z" style="fill:#e6e6e6;"></path><path d="M53.47,192.18l4.33,11.47-1.16,.67,.67,1.16,.95-.56,2.38,6.31h-.2l.2,1.31,.49-.07v6.91h-.66v1.32h.66v7.45h-.66v1.32h.66v7.44h-.66v1.37h.66v7.45h-.66v1.32h.66v10.75h1.32v-10.75h4.3v10.75h1.32v-10.75h.66v-1.32h-.66v-7.45h.66v-1.32h-.66v-7.44h.66v-1.32h-.66v-7.45h.66v-1.32h-.66v-7.06l-.33-.84,1.03-.15-.2-1.31-1.31,.2-3.18-8.73,.43-.24-.67-1.16-.22,.14-2.17-5.73,4.35-2.53-.67-1.16-4.15,2.43-.56-1.5-3.49-16.56-1.29,.28,3.49,16.65,.67,1.79-1.85,1.08,.67,1.16,1.65-.96,2.16,5.74-3.49,2.01-4.23-11.16-1.63-7.76-1.3,.28,1.66,7.84Zm9.04,46.12h4.3v7.45h-4.3v-7.45Zm0-8.76h4.3v7.44h-4.3v-7.44Zm0-8.77h4.3v7.45h-4.3v-7.45Zm0-8.44l3.99-.59,.34,.88v6.82h-4.3v-7.06l-.02-.05Zm-3.06-8.1l3.49-2.01,3.1,8.2-3.99,.59-2.6-6.79Z" style="fill:#ebebeb;"></path><path d="M50.16,301.22v-45.41l-2.32-17.88,1.16-.22-.23-1.3-1.1,.21-3.49-16.59-1.29,.28,3.49,16.55-4.19,.78-.12-.94-.56-2.64,3.49-.64-.23-1.3-3.49,.64-.84-3.93-1.29,.28,.82,3.89-3.35,.62,.23,1.3,3.39-.63,.56,2.63,.12,.95h-.23l.23,1.3h.17l.86,6.77-2.59,.48,.24,1.31,2.51-.46,1.16,8.61v45.32h1.32v-45.38l-1.16-8.77,4.19-.77,1.23,9.62v45.32h1.29Zm-6.97-55.49l-.86-6.79,4.19-.77,.86,6.79-4.19,.77Z" style="fill:#e0e0e0;"></path><polygon points="44.42 259.07 53.24 241.54 58.74 241.54 60.51 247.43 56.33 257.75 49.93 259.07 44.42 259.07" style="fill:#e0e0e0;"></polygon><polygon points="44.42 259.07 53.24 241.54 58.74 241.54 60.51 247.43 56.33 257.75 49.93 259.07 44.42 259.07" style="fill:#e0e0e0; isolation:isolate;"></polygon><polygon points="49.93 259.07 58.74 241.54 67.58 244.96 77.28 240.1 77.28 261.49 49.93 259.07" style="fill:#e0e0e0;"></polygon><polygon points="49.93 259.07 58.74 241.54 67.58 244.96 77.28 240.1 77.28 261.49 49.93 259.07" style="fill:#e0e0e0; isolation:isolate;"></polygon><polygon points="59.19 220.69 63.16 197.08 71.1 197.08 75.07 180.27 79.49 180.27 79.49 192.24 79.49 211.64 77.28 220.69 74.41 222.31 63.6 220.69 59.19 220.69" style="fill:#e0e0e0;"></polygon><polygon points="59.19 220.69 63.16 197.08 71.1 197.08 75.07 180.27 79.49 180.27 79.49 192.24 79.49 211.64 77.28 220.69 74.41 222.31 63.6 220.69 59.19 220.69" style="fill:#e0e0e0; isolation:isolate;"></polygon><polygon points="63.6 220.69 67.58 197.08 75.51 197.08 79.49 180.27 88.27 190.77 85.87 198.2 85.87 222.31 63.6 220.69" style="fill:#e0e0e0;"></polygon><polygon points="63.6 220.69 67.58 197.08 75.51 197.08 79.49 180.27 88.27 190.77 85.87 198.2 85.87 222.31 63.6 220.69" style="fill:#e0e0e0; isolation:isolate;"></polygon><polygon points="100.64 180.27 87.54 185.73 81.92 198.63 73.75 207.11 73.75 218.15 57.52 218.15 55.44 225.43 55.44 231.38 73.75 231.38 73.75 255.21 49.93 255.21 49.93 255.14 46.51 256.53 39.93 256.53 39.93 392.71 116.98 392.71 116.98 180.27 100.64 180.27" style="fill:#e0e0e0;"></polygon><polygon points="100.64 180.27 87.54 185.73 81.92 198.63 73.75 207.11 73.75 218.15 57.52 218.15 55.44 225.43 55.44 231.38 73.75 231.38 73.75 255.21 49.93 255.21 49.93 255.14 46.51 256.53 39.93 256.53 39.93 392.71 116.98 392.71 116.98 180.27 100.64 180.27" style="fill:#e6e6e6; isolation:isolate;"></polygon><rect x="49.93" y="308.15" width="23.82" height="23.82" style="fill:#f5f5f5; isolation:isolate;"></rect><rect x="83.45" y="308.15" width="23.82" height="23.82" style="fill:#f5f5f5; isolation:isolate;"></rect><rect x="49.93" y="271.09" width="23.82" height="23.82" style="fill:#f5f5f5; isolation:isolate;"></rect><rect x="83.45" y="271.09" width="23.82" height="23.82" style="fill:#f5f5f5; isolation:isolate;"></rect><rect x="83.45" y="234.03" width="23.82" height="23.82" style="fill:#f5f5f5; isolation:isolate;"></rect><rect x="83.45" y="196.98" width="23.82" height="23.82" style="fill:#f5f5f5; isolation:isolate;"></rect><polygon points="151.83 300.31 142.79 300.31 145.6 313.77 130.66 334.72 132.75 350.39 126.69 366.71 127.64 392.71 151.83 392.71 151.83 300.31" style="fill:#ebebeb; isolation:isolate;"></polygon><rect x="135.34" y="332.79" width="5.62" height="2.81" style="fill:#e0e0e0;"></rect><rect x="139.26" y="328.49" width="5.62" height="2.81" style="fill:#e0e0e0;"></rect><rect x="139.26" y="337.09" width="5.62" height="2.81" style="fill:#e0e0e0;"></rect><rect x="142.79" y="332.79" width="5.62" height="2.81" style="fill:#e0e0e0;"></rect><rect x="136.73" y="352.48" width="5.62" height="2.81" style="fill:#e0e0e0;"></rect><rect x="140.25" y="348.18" width="5.62" height="2.81" style="fill:#e0e0e0;"></rect><rect x="129.28" y="368.72" width="5.62" height="2.81" style="fill:#e0e0e0;"></rect><rect x="133.19" y="364.42" width="5.62" height="2.81" style="fill:#e0e0e0;"></rect><rect x="140.69" y="364.42" width="5.62" height="2.81" style="fill:#e0e0e0;"></rect><rect x="133.19" y="373.02" width="5.62" height="2.81" style="fill:#e0e0e0;"></rect><rect x="140.69" y="373.02" width="5.62" height="2.81" style="fill:#e0e0e0;"></rect><rect x="136.73" y="368.72" width="5.62" height="2.81" style="fill:#e0e0e0;"></rect><rect x="133.19" y="381.88" width="5.62" height="2.81" style="fill:#e0e0e0;"></rect><rect x="137.11" y="377.58" width="5.62" height="2.81" style="fill:#e0e0e0;"></rect><rect x="137.11" y="386.17" width="5.62" height="2.81" style="fill:#e0e0e0;"></rect><rect x="144.61" y="386.17" width="5.62" height="2.81" style="fill:#e0e0e0;"></rect><rect x="140.64" y="381.88" width="5.62" height="2.81" style="fill:#e0e0e0;"></rect><g style="opacity:.2;"><rect x="135.34" y="332.79" width="5.62" height="2.81" style="fill:#e0e0e0;"></rect><rect x="139.26" y="328.49" width="5.62" height="2.81" style="fill:#e0e0e0;"></rect><rect x="139.26" y="337.09" width="5.62" height="2.81" style="fill:#e0e0e0;"></rect><rect x="142.79" y="332.79" width="5.62" height="2.81" style="fill:#e0e0e0;"></rect><rect x="136.73" y="352.48" width="5.62" height="2.81" style="fill:#e0e0e0;"></rect><rect x="140.25" y="348.18" width="5.62" height="2.81" style="fill:#e0e0e0;"></rect><rect x="129.28" y="368.72" width="5.62" height="2.81" style="fill:#e0e0e0;"></rect><rect x="133.19" y="364.42" width="5.62" height="2.81" style="fill:#e0e0e0;"></rect><rect x="140.69" y="364.42" width="5.62" height="2.81" style="fill:#e0e0e0;"></rect><rect x="133.19" y="373.02" width="5.62" height="2.81" style="fill:#e0e0e0;"></rect><rect x="140.69" y="373.02" width="5.62" height="2.81" style="fill:#e0e0e0;"></rect><rect x="136.73" y="368.72" width="5.62" height="2.81" style="fill:#e0e0e0;"></rect><rect x="133.19" y="381.88" width="5.62" height="2.81" style="fill:#e0e0e0;"></rect><rect x="137.11" y="377.58" width="5.62" height="2.81" style="fill:#e0e0e0;"></rect><rect x="137.11" y="386.17" width="5.62" height="2.81" style="fill:#e0e0e0;"></rect><rect x="144.61" y="386.17" width="5.62" height="2.81" style="fill:#e0e0e0;"></rect><rect x="140.64" y="381.88" width="5.62" height="2.81" style="fill:#e0e0e0;"></rect></g><rect x="49.93" y="308.15" width="4.81" height="23.82" style="fill:#e0e0e0;"></rect><rect x="83.45" y="308.15" width="4.81" height="23.82" style="fill:#e0e0e0;"></rect><rect x="49.93" y="271.09" width="4.81" height="23.82" style="fill:#e0e0e0;"></rect><rect x="83.45" y="271.09" width="4.81" height="23.82" style="fill:#e0e0e0;"></rect><rect x="83.45" y="234.03" width="4.81" height="23.82" style="fill:#e0e0e0;"></rect><rect x="83.45" y="196.98" width="4.81" height="23.82" style="fill:#e0e0e0;"></rect><g style="opacity:.3;"><rect x="49.93" y="308.15" width="4.81" height="23.82" style="fill:#e0e0e0;"></rect><rect x="83.45" y="308.15" width="4.81" height="23.82" style="fill:#e0e0e0;"></rect><rect x="49.93" y="271.09" width="4.81" height="23.82" style="fill:#e0e0e0;"></rect><rect x="83.45" y="271.09" width="4.81" height="23.82" style="fill:#e0e0e0;"></rect><rect x="83.45" y="234.03" width="4.81" height="23.82" style="fill:#e0e0e0;"></rect><rect x="83.45" y="196.98" width="4.81" height="23.82" style="fill:#e0e0e0;"></rect></g><rect x="46.3" y="345.6" width="47.8" height="7.3" style="fill:#e0e0e0;"></rect><rect x="46.3" y="345.6" width="47.8" height="7.3" style="fill:#e0e0e0; isolation:isolate;"></rect><rect x="94.1" y="345.6" width="15.27" height="7.3" style="fill:#e0e0e0;"></rect><rect x="94.1" y="345.6" width="15.27" height="7.3" style="fill:#e0e0e0; isolation:isolate;"></rect><rect x="49.73" y="352.91" width="6.63" height="39.71" style="fill:#e0e0e0;"></rect><rect x="49.73" y="352.91" width="6.63" height="39.71" style="fill:#e0e0e0; isolation:isolate;"></rect><rect x="87.41" y="358.33" width="21.96" height="34.28" style="fill:#e0e0e0;"></rect><rect x="87.41" y="358.33" width="21.96" height="34.28" style="fill:#ebebeb; isolation:isolate; opacity:.2;"></rect><rect x="65.44" y="358.33" width="21.96" height="34.28" style="fill:#e0e0e0;"></rect><rect x="65.44" y="358.33" width="21.96" height="34.28" style="fill:#e0e0e0; isolation:isolate; opacity:.1;"></rect><polygon points="76.43 363.97 74.07 370.28 78.94 375.93 78.35 381.56 83.81 379.02 87.41 379.83 87.41 358.33 75.2 358.33 76.43 363.97" style="fill:#f5f5f5; isolation:isolate;"></polygon><polygon points="109.37 392.6 109.37 375.69 104.39 371.94 103.4 375.93 99.52 375.47 101.18 383.34 94.87 386.33 100.96 388.65 99.89 392.6 109.37 392.6" style="fill:#ebebeb; isolation:isolate;"></polygon><polygon points="49.73 373.13 51.45 371.94 52.44 372.75 55.34 369.5 56.37 370.59 56.37 352.91 49.73 352.91 49.73 373.13" style="fill:#e0e0e0;"></polygon><polygon points="49.73 373.13 51.45 371.94 52.44 372.75 55.34 369.5 56.37 370.59 56.37 352.91 49.73 352.91 49.73 373.13" style="fill:#e0e0e0; isolation:isolate;"></polygon><rect x="90.78" y="352.91" width="6.64" height="39.71" style="fill:#e0e0e0;"></rect><rect x="90.78" y="352.91" width="6.64" height="39.71" style="fill:#e0e0e0; isolation:isolate;"></rect></g></g><g><path d="M227.6,80.28l-6.42-13.88,4.25-.76,8.4,11.24,11.33-.09-3.87-3.82,5.29-.9,3.49,2.93,36.35-6.33,5.29-8.97,10.86-1.79s.38-2.08,.66-2.17c.28-.09,1.32,0,1.32,0v-3.02l-47.77-24.17,3.3-1.89,43.62,23.32s.76-1.04,2.27-1.04,3.12,.28,3.12,.28l1.42,1.51,59.76-7.08s1.98,2.17,1.7,2.08c-.28-.09-47.96,6.23-47.96,6.23,0,0-2.83-1.23-3.12-1.23s-6.42,.94-6.42,.94l-.47,.94-5.48,.85-.38,1.61,1.79,.66,.19,1.13,3.3-.09,.76,1.42s7.27-1.13,10.86-.57c3.59,.57,11.33,7.08,15.2,9.16s4.53,6.51,0,8.4c-4.53,1.89-12.46,6.04-22.75,6.61s-25.4-1.89-28.7-2.74c-3.3-.85-33.14,1.42-33.14,1.42l4.34,4.15-5.29,.47-3.97-3.78-15.86,.66-4.25,8.31-3.59-.66,.94-7.27h-3.59l.09-.94,3.12-1.13Z" style="fill:#e0e0e0;"></path><path d="M297.57,81.3c3.67,3.36,3.1,8.8,2.59,13.26-.06,.52,.48,.95,.96,.96,.56,0,.9-.45,.96-.96,.57-5.01,.93-10.88-3.15-14.62-.91-.83-2.26,.52-1.35,1.35h0Z" style="fill:#e0e0e0;"></path><path d="M296.77,96.44c5.36-.78,10.71-1.61,16.06-2.51,4.98-.84,10.11-1.45,14.62-3.87,2.45-1.31,4.67-3,6.87-4.67,.83-.63,.38-2-.74-1.75-10.18,2.32-20.52,3.9-30.92,4.71-2.98,.23-5.97,.4-8.96,.5-1.23,.04-1.23,1.96,0,1.91,10.55-.38,21.07-1.53,31.45-3.44,2.99-.55,5.97-1.17,8.94-1.84-.25-.58-.49-1.16-.74-1.75-1.91,1.45-3.83,2.9-5.89,4.12-2.11,1.24-4.33,2.11-6.71,2.68-5.06,1.21-10.3,1.89-15.44,2.7-3.01,.48-6.03,.93-9.05,1.37-1.21,.18-.7,2.02,.51,1.84h0Z" style="fill:#e0e0e0;"></path><path d="M314.33,82.16c2.06,2.88,2.77,6.55,1.86,9.98-.32,1.19,1.53,1.7,1.84,.51,1.03-3.89,.29-8.17-2.05-11.45-.3-.42-.83-.62-1.31-.34-.41,.24-.64,.89-.34,1.31h0Z" style="fill:#e0e0e0;"></path><path d="M290.25,79.2c-.58,1.79-.87,3.67-.86,5.55,0,.5,.44,.98,.96,.96,.51-.02,.96-.42,.96-.96,0-.43,0-.86,.04-1.3,.02-.23,.04-.46,.06-.7,.01-.1,.02-.2,.04-.3-.02,.16,.02-.16,.03-.19,.14-.87,.35-1.73,.62-2.57,.16-.48-.18-1.07-.67-1.18-.53-.12-1.01,.16-1.18,.67h0Z" style="fill:#e0e0e0;"></path><path d="M285.61,86.57c7.34-1.16,14.68-2.31,22.02-3.47,1.21-.19,.7-2.03-.51-1.84-7.34,1.16-14.68,2.31-22.02,3.47-1.21,.19-.7,2.03,.51,1.84h0Z" style="fill:#e0e0e0;"></path></g><path d="M290.46,184.02c-1.94-1.47-4.77-1.63-6.87-.4-2.79-5.63-10.55-8.12-16.09-5.15-1.44-6.07-7.42-10.73-13.66-10.66-6.24,.08-12.1,4.88-13.4,10.98-.21,.97-.34,2.03-1.04,2.74-1.13,1.15-3.01,.76-4.61,.64-5.05-.39-10.13,3.15-11.51,8.03l69.56-.25c.61-2.36-.44-4.46-2.38-5.93Z" style="fill:#f0f0f0;"></path><path d="M314.35,135.79c-.94-.71-2.3-.79-3.32-.19-1.34-2.72-5.09-3.92-7.77-2.49-.7-2.93-3.58-5.18-6.59-5.14-3.01,.04-5.84,2.36-6.47,5.3-.1,.47-.17,.98-.5,1.32-.54,.56-1.45,.37-2.23,.31-2.44-.19-4.89,1.52-5.55,3.87l33.57-.12c.29-1.14-.21-2.15-1.15-2.86Z" style="fill:#f0f0f0;"></path><path d="M106.28,86.18c-1.23-.93-3.03-1.04-4.36-.26-1.77-3.57-6.69-5.15-10.2-3.27-.92-3.85-4.71-6.81-8.66-6.76-3.96,.05-7.67,3.1-8.5,6.96-.13,.61-.22,1.29-.66,1.74-.71,.73-1.91,.48-2.93,.41-3.2-.25-6.43,2-7.3,5.09l44.11-.16c.39-1.49-.28-2.83-1.51-3.76Z" style="fill:#f0f0f0;"></path><path d="M421.73,112.67c-1.17-.88-2.88-.99-4.15-.24-1.68-3.4-6.37-4.9-9.71-3.11-.87-3.66-4.48-6.48-8.24-6.43-3.76,.05-7.3,2.95-8.09,6.63-.12,.59-.21,1.23-.63,1.65-.68,.69-1.81,.46-2.78,.39-3.05-.24-6.12,1.9-6.94,4.85l41.98-.15c.37-1.42-.27-2.69-1.44-3.58Z" style="fill:#e0e0e0;"></path><path d="M201,59.28c-1.5-1.13-3.69-1.26-5.32-.31-2.16-4.36-8.16-6.28-12.45-3.98-1.12-4.69-5.74-8.3-10.57-8.24-4.82,.06-9.36,3.78-10.37,8.5-.16,.75-.27,1.57-.8,2.12-.87,.89-2.33,.59-3.57,.49-3.91-.3-7.84,2.44-8.9,6.21l53.81-.2c.47-1.82-.34-3.45-1.84-4.59Z" style="fill:#e0e0e0;"></path></g><g id="freepik--Shadow--inject-58"><path d="M455.38,446.86c0,3.39-93.52,6.13-208.87,6.13s-208.87-2.75-208.87-6.13,93.52-6.13,208.87-6.13,208.87,2.75,208.87,6.13Z" style="fill:#f5f5f5;"></path></g><g id="freepik--Rocks--inject-58"><g><path d="M416.65,444.37l3.77-13.45,14.91-4.79s18.39,11.88,19.45,12.22c1.06,.34,2.12,6,2.12,6l-40.26,.03Z" style="fill:#263238;"></path><path d="M416.65,444.37l3.77-13.45,14.91-4.79s18.39,11.88,19.45,12.22c1.06,.34,2.12,6,2.12,6l-40.26,.03Z" style="fill:#fff; opacity:.3;"></path></g><g><path d="M382.79,444.62l2.09-7.44,8.25-2.65s10.17,6.57,10.76,6.76c.59,.19,1.17,3.32,1.17,3.32l-22.27,.02Z" style="fill:#263238;"></path><path d="M382.79,444.62l2.09-7.44,8.25-2.65s10.17,6.57,10.76,6.76c.59,.19,1.17,3.32,1.17,3.32l-22.27,.02Z" style="fill:#fff; opacity:.3;"></path></g><g><path d="M102.78,444.06l-6.1-21.77-24.13-7.76s-29.76,19.23-31.48,19.77c-1.72,.55-3.43,9.7-3.43,9.7l65.15,.05Z" style="fill:#263238;"></path><path d="M102.78,444.06l-6.1-21.77-24.13-7.76s-29.76,19.23-31.48,19.77c-1.72,.55-3.43,9.7-3.43,9.7l65.15,.05Z" style="fill:#fff; opacity:.3;"></path></g></g><g id="freepik--Character_2--inject-58"><g><g><path d="M366.59,370.31s3.07-1.03,6.24-.55c3.17,.49,5.18,1.49,6.51,1.36,1.33-.13,2.74,.42,1.44,1.8-1.3,1.38-1.48,2.39-3.64,2.49,0,0,1.55,.36,1.73,3.88,.18,3.52-3.22,5.76-3.22,5.76,0,0-.29,2.46-2.63,2.42,0,0-1.3,1.38-3.05,1.2-1.76-.18-6.84-2.63-8.35-5.36s-.46-1.8-2.45-2.64c-1.99-.83-5.39-2.8-5.39-2.8l3.85-11.49,8.61,3.8" style="fill:#efb9af;"></path><path d="M356.35,380.06l6.72-12.75-2.2-1.18-10.63-12.99s-12.83,14.59-12.76,14.76c.06,.18,16.68,11.03,16.68,11.03l2.2,1.13Z" style="fill:#407BFF;"></path><path d="M356.35,380.06l6.72-12.75-2.2-1.18-10.63-12.99s-12.83,14.59-12.76,14.76c.06,.18,16.68,11.03,16.68,11.03l2.2,1.13Z" style="opacity:.4;"></path><polygon points="373.86 375.33 365.06 382.08 367.52 385.56 376.96 379.25 373.86 375.33" style="fill:#263238;"></polygon><path d="M375.28,378.17c-.4-.49-.97-1.03-1.58-.84-.52,.17-.73,.79-.78,1.33-.12,1.24,.03,2.66,.66,3.75-.27-.37-.58-.8-.78-1.11-.42-.64-.83-1.32-1.45-1.76-.62-.45-1.53-.6-2.14-.13-.73,.57-.67,1.69-.35,2.56,.19,.51,.45,.99,.76,1.43-.34-.26-.73-.44-1.15-.4-.94,.09-1.45,1.26-1.22,2.17s.95,1.61,1.64,2.25l9.1-5.47c-.83-1.31-1.73-2.58-2.7-3.78Z" style="fill:#efb9af;"></path></g><g><g><path d="M253.92,316.67c-3.17,2.06-5.29,5.48-6.66,9.06-2.46,6.41-2.78,13.43-3.07,20.3-.11,2.57-.17,5.32,1.16,7.49,1.96,3.18,10.36,4.12,13.95,3.25l6.89-38.94c-3.06-2.17-9.1-3.22-12.26-1.16Z" style="fill:#407BFF;"></path><g style="opacity:.3;"><path d="M253.92,316.67c-3.17,2.06-5.29,5.48-6.66,9.06-2.46,6.41-2.78,13.43-3.07,20.3-.11,2.57-.17,5.32,1.16,7.49,1.96,3.18,10.36,4.12,13.95,3.25l6.89-38.94c-3.06-2.17-9.1-3.22-12.26-1.16Z"></path></g><path d="M262.55,316.17c-.06-.01-5.91,40.54-5.91,40.54,0,0-3.88-.46,1.93-32.94,1.25-6.96,2.02-8.03,2.02-8.03,1.1,.15,1.22,.19,1.95,.43Z" style="opacity:.3;"></path></g><g><path d="M266.67,288.09c-2.23,.71-4.05,2.41-5.46,4.32-2.52,3.43-3.86,7.56-5.15,11.61-.49,1.52-.98,3.15-.53,4.66,.65,2.22,5.51,4.15,7.8,4.22l10.48-22.12c-1.47-1.8-4.91-3.41-7.13-2.7Z" style="fill:#407BFF;"></path><g style="opacity:.3;"><path d="M266.67,288.09c-2.23,.71-4.05,2.41-5.46,4.32-2.52,3.43-3.86,7.56-5.15,11.61-.49,1.52-.98,3.15-.53,4.66,.65,2.22,5.51,4.15,7.8,4.22l10.48-22.12c-1.47-1.8-4.91-3.41-7.13-2.7Z"></path></g></g><path d="M262.8,312.86l9.1-23.67-1.57-.77c-5.73,7.02-8.21,15.18-8.76,24.26l1.23,.17Z" style="opacity:.3;"></path><path d="M292.12,349.68c1.79-18.57,3.58-37.14,5.37-55.71,.09-.96,.03-1.93-.19-2.86h0c-.6-2.57-2.32-4.58-4.57-5.38-2.4-.85-4.87-1.48-7.39-1.65-3.82-.26-7.83,.59-11.19,3.09-3.61,2.68-6.23,7.07-7.95,11.74s-2.63,9.67-3.52,14.62c-1.65,9.1-3.29,18.19-4.94,27.29-1.02,5.63-2.04,11.5-.9,16.95,1.74,8.35,8.28,13.85,15.15,15.96,3.35,1.03,7.05,1.38,10.33-.36,3.51-1.86,6.05-5.9,7.48-10.21,1.43-4.31,1.88-8.93,2.32-13.48Z" style="fill:#407BFF;"></path><g style="opacity:.3;"><path d="M292.12,349.68c1.79-18.57,3.58-37.14,5.37-55.71,.09-.96,.03-1.93-.19-2.86h0c-.6-2.57-2.32-4.58-4.57-5.38-2.4-.85-4.87-1.48-7.39-1.65-3.82-.26-7.83,.59-11.19,3.09-3.61,2.68-6.23,7.07-7.95,11.74s-2.63,9.67-3.52,14.62c-1.65,9.1-3.29,18.19-4.94,27.29-1.02,5.63-2.04,11.5-.9,16.95,1.74,8.35,8.28,13.85,15.15,15.96,3.35,1.03,7.05,1.38,10.33-.36,3.51-1.86,6.05-5.9,7.48-10.21,1.43-4.31,1.88-8.93,2.32-13.48Z"></path></g><path d="M270.67,336.51c1.27-9.17,2.9-18.28,4.51-27.39,1.91-8.5,2.2-20,10.75-24.75-8.01,5.44-7.87,16.33-9.77,24.93-1.72,9.09-3.43,18.19-5.49,27.21h0Z" style="opacity:.3;"></path></g><g><path d="M307.66,277.1c-.31-2.41,.16-4.92,1.31-7.07l-3.1-2.19c-2.92,.25-5.89,1.26-7.89,3.4-1.72,1.83-2.57,4.34-2.81,6.84-.23,2.5,.11,5.02,.54,7.49,.08,.44,.22,.96,.65,1.1,.21,.07,.45,.02,.66-.03,4.56-1.01,9.11-2.03,13.67-3.05-1.65-1.79-2.73-4.1-3.04-6.51Z" style="fill:#263238;"></path><path d="M309.46,269.9c-.75-1.09-1.5-2.17-2.25-3.26l-.06-.17c-.37-.34-1.02-.22-1.34,.17-.32,.39-.35,.96-.19,1.44,.15,.48,.46,.89,.78,1.29,.55,.68,1.16,1.37,1.98,1.66,.26,.09,.56,.14,.82,.06,.27-.08,.5-.32,.5-.6,0-.22-.13-.41-.25-.59Z" style="fill:#407BFF;"></path><path d="M312.77,255.41l-4.43,.56c-2.12,2.86-2.74,6.78-1.61,10.15,1.13,3.38,3.99,6.13,7.4,7.13-.68-5.93-1.14-11.88-1.36-17.84Z" style="fill:#263238;"></path><g><g><g><path d="M309.56,286.3s2.77-6.02,2.37-18.01c0-.01,0,.01,0,0-.05-1.68-.09-3.8-.22-5.17,0-.04,.6,.38,.6,.38l12.87,13.33c-1.27,3.48-1.74,10.71-1.72,13.82,0,0,.58,5.77-6.5,4.21-5.17-1.14-7.41-8.56-7.41-8.56Z" style="fill:#efb9af;"></path><path d="M324.17,281.92l-8.29-4.22c.1,2.94,1.7,6.8,7.75,8.62,0,0,.17-3.22,.54-4.4Z" style="opacity:.2;"></path></g><g><path d="M342.47,253.12c.9,3.99-.44,11.93-5.66,8.88-5.22-3.05,4.12-15.74,5.66-8.88Z" style="fill:#263238;"></path><path d="M314.08,256.04c-1.44,9.95-2.45,15.53,1.49,21.56,5.92,9.07,18.69,7.14,23.08-2.2,3.95-8.41,5.64-23.27-3.2-29.09-8.71-5.73-19.93-.22-21.36,9.73Z" style="fill:#efb9af;"></path><path d="M314.88,244.15c2.47-5.13,16.46-2.55,19.67,1.01,.48,.53,6.17,7.81,6.7,7.73l-18.62-4.39c-.56-.25-1.84,.19-2.81,1.88,0,0-.72,10.7-5.89,14.17-3.86-2.85-4.67-4.84-5.01-8.62-.51-5.63,3.13-9.25,5.96-11.79Z" style="fill:#263238;"></path><path d="M327.39,262.21c-.21,1.01,.16,1.93,.82,2.06,.66,.13,1.36-.58,1.57-1.58,.21-1.01-.16-1.93-.82-2.06-.66-.13-1.36,.58-1.57,1.58Z" style="fill:#263238;"></path><path d="M338.11,264.04c-.21,1.01,.16,1.93,.82,2.06,.66,.13,1.36-.58,1.57-1.58,.21-1.01-.16-1.93-.82-2.06-.66-.13-1.36,.58-1.57,1.58Z" style="fill:#263238;"></path><path d="M334.28,262.82s2.15,5.66,2.74,7.9c-1.66,.97-3.95-.11-3.95-.11l1.21-7.79Z" style="fill:#e27064;"></path><path d="M326.51,257.85c.09,.14,.25,.23,.43,.22,2.15-.1,3.21,1.31,3.22,1.33,.16,.21,.46,.26,.67,.11,.22-.15,.26-.45,.11-.67-.05-.08-1.39-1.85-4.05-1.72-.27,.01-.47,.24-.46,.5,0,.09,.03,.16,.07,.23Z" style="fill:#263238;"></path></g></g><path d="M325.64,285.11l-5.57-1.9c-1.22-.41-1.87-1.74-1.45-2.95h0c.41-1.22,1.74-1.86,2.95-1.45l5.57,1.9c1.22,.41,1.86,1.74,1.45,2.95h0c-.41,1.22-1.74,1.86-2.95,1.45Z" style="fill:#263238;"></path><path d="M342.41,261.27c.09-.03,.16-.08,.22-.16,.16-.21,.12-.51-.09-.68-2.1-1.62-4.18-.88-4.28-.86-.25,.09-.38,.37-.29,.62,.09,.25,.36,.38,.61,.29,.09-.03,1.7-.58,3.38,.72,.13,.1,.3,.12,.45,.07Z" style="fill:#263238;"></path><path d="M308.5,263.43c.26,2.69,1.75,5,3.49,6.38,2.63,2.06,5.25,.02,5.62-3.13,.33-2.84-.64-7.33-3.81-8.16-3.12-.82-5.6,1.84-5.3,4.92Z" style="fill:#efb9af;"></path><path d="M315.18,265.3h-.02c-.14-.01-.24-.14-.23-.27,.08-.82-.07-1.65-.41-2.41-.22-.49-.63-1.13-1.3-1.46-.6-.29-1.33-.2-1.74,.19-.1,.1-.26,.09-.35,0-.1-.1-.09-.26,0-.35,.56-.55,1.51-.67,2.3-.29,.81,.39,1.28,1.14,1.54,1.7,.38,.83,.54,1.75,.45,2.66-.01,.13-.12,.23-.25,.23Z" style="opacity:.2;"></path><path d="M319.83,255.25s-2.57,21.42-1.66,22.59c3.78,4.83,7.79,5.66,7.79,5.66,0,0-.48,.51-2.82-.35-2.34-.86-5.01-1.94-6.13-3.69-1.13-1.75-.51-10.94-.78-13.33-.28-2.4,.16-11.36,.16-11.36l3.45,.49Z" style="fill:#263238;"></path><polygon points="316.72 275.85 311.49 271.49 311.74 269.59 316.44 273.6 316.72 275.85" style="fill:#263238;"></polygon></g><path d="M325.42,272.32c1.21,.45,2.34,1.09,3.43,1.77,.41,.26,.79-.39,.38-.65-1.15-.72-2.33-1.38-3.61-1.85-.19-.07-.41,.08-.46,.26-.06,.21,.07,.39,.26,.46h0Z" style="fill:#263238;"></path><path d="M306.28,257.41s15.45-.39,24.04,.33c8.59,.72,15.62,2.7,16.14,1.78,1.09-1.94-.54-2.45-.54-2.45,0,0,1.61-18.43-17.2-20.1-18.82-1.67-21.4,17.2-21.4,17.2,0,0-1.89,.96-1.03,3.23Z" style="fill:#407BFF;"></path><path d="M307.31,254.18s19.9-.98,38.6,2.9h0s-24.2-6.75-38.6-2.9Z" style="opacity:.3;"></path><path d="M328.57,235.8c5.65-.17,11.2,2.55,14.51,7.14,.28,.39,.93,.01,.65-.38-3.46-4.81-9.23-7.68-15.16-7.51-.48,.01-.48,.76,0,.75h0Z" style="fill:#407BFF;"></path></g><g><path d="M325.02,372.69c1.19,1.04,51.33,34.55,54.43,39.75s3.43,17.87-4.01,19.75-58.28,3.06-58.28,3.06c0,0-1.31-19.52-1.1-25.97,.01-.42,19.88,3.49,19.88,3.49l-38.32-7.58,27.4-32.49Z" style="fill:#407BFF;"></path><path d="M325.01,372.67c1.19,1.04,51.33,34.55,54.43,39.75,3.1,5.2,3.43,17.87-4.01,19.75-7.44,1.87-58.28,3.06-58.28,3.06,0,0-1.31-19.52-1.1-25.97,.01-.42,19.88,3.49,19.88,3.49l-35.74-7.02,24.82-33.05Z" style="opacity:.4;"></path><path d="M310.37,407.74l7.85-5.71,3.8-22.44s-17.6,26.8-17.31,26.94,5.66,1.2,5.66,1.2Z" style="opacity:.3;"></path></g><path d="M346.43,434.3l-3.17-3.54,3.9-19.02s1.95-.05,3.05-2.76,2.81-16.92,2.77-16.95c-.03-.02-4.86-2.52-4.86-2.52l-12.53,38.7s3,5.99,3.33,6.1c.33,.11,7.03,.24,7.03,.24" style="opacity:.3;"></path><path d="M341.02,432.56c8.69,5.77,16.65,4.16,17.29,8.67,.32,2.25,.75,5.93-4.5,5.61-8.72-.35-7.96-.61-15.38-.94-6.35-.29-13.67-.33-18.72-.48-.08,0-.16-.01-.23-.03-1.1-.19-1.84-1.24-1.65-2.34l2.5-11.33c.1-.51-1.19-24.29-.67-24.25l25.09,1.33-3.73,23.76Z" style="fill:#263238;"></path><path d="M291.16,431.84c-5.49,8.87-3.63,16.77-8.12,17.56-2.24,.39-5.9,.94-5.75-4.32,.07-8.73,.35-7.97,.45-15.4,.08-6.36-.11-13.68-.12-18.72,0-.08,0-.16,.02-.23,.16-1.11,1.18-1.88,2.29-1.72l11.4,2.14c.51,.09,24.74-2.37,24.72-1.85l1.74,25.97-26.63-3.4Z" style="fill:#263238;"></path><g><path d="M331.77,357.49c.72,4.61-.38,23.21-.38,23.21-5.06,1.94-54.77-3.32-55.71-6.2-.94-2.88,7.63-26.19,7.63-26.19l48.45,9.18Z" style="fill:#407BFF;"></path><path d="M288,323.83s1.97-29.16,4.56-32.29c2.59-3.13,6.97-8.92,14.79-7.44,7.82,1.48,17.42,4.99,17.42,4.99,0,0,11.81,14.89,11.22,14.94-.59,.05-30.04,43.99-30.04,43.99l-20.3-7.54,2.35-16.66Z" style="fill:#407BFF;"></path><path d="M283.92,356.05s6.53,3.52,17.35,6.66c18.35,5.32,30.84,2.06,30.84,2.06l.38-2.68-48.57-6.05Z" style="opacity:.3;"></path><path d="M280.52,349.13c-.57,3.97,2,7.71,5.9,8.63,14.92,3.54,49.58,10.72,50.88,1.48,1.28-9.09,1.13-32.77,1.34-45,.15-8.89-4.05-12.1-4.05-12.1l-5.46-6.05-7.89-.49s-5.23-11.31-14.31-12.37c-9.08-1.06-14.38,8.32-14.38,8.32,0,0,6.62-8.93,13.53-6.63,6.91,2.3,5.19,9.22,6.08,16.91,.48,4.16-10.58,22.52-15.53,19.17-4.95-3.35-4.57-6.53-3.62-13.75,.65-4.91-.62-9.14-.62-9.14,0,0,.83-5.89-2.97,6.34-3.26,10.5-6.12,30.82-7.8,38.39-.44,1.99-.81,4.23-1.11,6.29Z" style="fill:#407BFF;"></path><path d="M280.52,349.13c-.57,3.97,2,7.71,5.9,8.63,14.92,3.54,49.58,10.72,50.88,1.48,1.28-9.09,1.13-32.77,1.34-45,.15-8.89-4.05-12.1-4.05-12.1l-5.46-6.05-7.89-.49s-5.23-11.31-14.31-12.37c-9.08-1.06-14.38,8.32-14.38,8.32,0,0,6.62-8.93,13.53-6.63,6.91,2.3,5.19,9.22,6.08,16.91,.48,4.16-10.58,22.52-15.53,19.17-4.95-3.35-4.57-6.53-3.62-13.75,.65-4.91-.62-9.14-.62-9.14,0,0,.83-5.89-2.97,6.34-3.26,10.5-6.12,30.82-7.8,38.39-.44,1.99-.81,4.23-1.11,6.29Z" style="opacity:.7;"></path><g><path d="M306.94,283.22c-8.77-2.94-17.21,7.92-17.21,7.92l.55,3.36c19.84-17.71,21.57-2.18,23.99,5.6,2.42,7.79-4.54,19.83-4.54,19.83,0,0-40.05,27.42-39.64,27.48,.41,.06,1.08,14.14,1.08,14.14l6.7-2.88,31.86-27.45c4.62-3.98,7.73-9.44,8.8-15.44,.56-3.14,1.15-6.46,1.59-8.87,1.11-6.14-4.4-20.75-13.17-23.69Z" style="fill:#407BFF;"></path><path d="M306.94,283.22c-8.77-2.94-17.21,7.92-17.21,7.92l.55,3.36c19.84-17.71,21.57-2.18,23.99,5.6,2.42,7.79-4.54,19.83-4.54,19.83,0,0-40.05,27.42-39.64,27.48,.41,.06,1.08,14.14,1.08,14.14l6.7-2.88,32.47-27.98c4.23-3.64,7.07-8.63,8.04-14.12,.6-3.37,1.25-7.05,1.73-9.67,1.11-6.14-4.4-20.75-13.17-23.69Z" style="opacity:.3;"></path></g><polygon points="282.45 338.69 273.77 344.73 285.14 323.65 282.45 338.69" style="opacity:.3;"></polygon><path d="M280.75,367.32c-.37,.51,31.66-16.06,31.66-16.06,0,0-23.69,5.08-31.66,16.06Z" style="opacity:.3;"></path><path d="M352.73,344.14s0,.02,0,.03c.02,.05,.01,.04,0-.03Z" style="fill:#cd7a63;"></path></g><g><path d="M281.36,367.14s48.89-27.14,61.52-26.38c12.63,.76,10.92,8.1,11.68,15.42,.61,5.93-3.87,36.87-5.6,48.43-.37,2.48-2.56,4.27-5.07,4.15l-21.64-1.07c-2.56-.13-4.47-2.42-4.13-4.97l2.84-21.03s-6.98,30.05-32.07,30.05c-18.31,0-19.89-10.31-18.15-29.23,1.21-13.22,10.61-15.36,10.61-15.36Z" style="fill:#407BFF;"></path><path d="M267.38,382.92c-1.79,7.55-1.43,15.48,1.04,22.83,.15,.46,.88,.26,.72-.2-2.43-7.23-2.8-15.01-1.04-22.44,.11-.47-.61-.67-.72-.2h0Z" style="fill:#407BFF;"></path><g><path d="M324.32,400.78c.08,.27,3.01,7.43,3.01,7.43,0,0-3.3-.79-2.93-7.16" style="opacity:.3;"></path><g style="opacity:.3;"><path d="M342.61,402.16c-.73,1.98-2.35,5.21-3.71,6.82,1.19-.25,2.68-2.08,3.14-3.21,.48-1.2,.75-2.33,.58-3.6Z"></path></g><path d="M333.08,408.37s2.06-5.51,2.28-10.59c0,0,1.99,7.21-2.28,10.59Z" style="opacity:.3;"></path></g><path d="M321.11,380.89l2.25-12.95-8.74,28.32c1.54-2.19,5.86-10.97,6.49-15.38Z" style="opacity:.3;"></path><polygon points="296.99 370.92 294.12 360.33 304.55 355.05 306.24 368.59 296.99 370.92" style="fill:#263238;"></polygon><g><g><path d="M284.17,375.18l6.96,18.16s24.62-5.37,26.64-9.65c2.02-4.28-.43-18.64-5.69-18.28-5.26,.35-25.78,4.9-27.91,9.77Z" style="fill:#407BFF;"></path><path d="M310.98,387.72l-9.66,3.08s1.81,7.2,11.09,8.64c0,0,3.18-3.94,4.73-6.76,0,0-4.36-1.2-6.17-4.96Z" style="fill:#263238;"></path><path d="M284.17,375.18l6.96,18.16s24.62-5.37,26.64-9.65c2.02-4.28-.43-18.64-5.69-18.28-5.26,.35-25.78,4.9-27.91,9.77Z" style="opacity:.3;"></path></g><path d="M292.51,392.68s9.53-8.63,8.91-10.42c-.62-1.77-15.75-7.45-15.75-7.45,0,0,16.87,4.38,17.08,7.24,.21,2.86-8.86,9.97-10.24,10.63Z" style="opacity:.3;"></path><path d="M297.89,382.38c.32-.12,.67,.04,.8,.35,.12,.32-.04,.67-.35,.8-.32,.12-.67-.04-.8-.35-.12-.32,.04-.67,.35-.8Z" style="opacity:.3;"></path></g><polygon points="351.77 384.92 320.53 384.92 321.29 379.83 352.44 379.83 351.77 384.92" style="fill:#263238;"></polygon></g><g><path d="M292.75,295.35s-24.59,34.95-11.22,40.87c14.94,6.62,45.72,5.52,45.72,5.52l4.05-17.14-18.37-3.44-9.73-2.03,6.25-10.04s11.8-16.92,1.42-22.15c-10.59-5.33-18.12,8.41-18.12,8.41Z" style="fill:#407BFF;"></path><g><path d="M391.19,388.47l1.43-1.51-27.37-42.6,6.69-5.76-1.31-1.45-2.4,1.3-8.78-9.98-3.82,2.58-4.84-5.87,1.27-2.29-1.11-1.61-1.82,1.49-35.17-44.45c-.91-1.15-2.56-1.38-3.75-.51l-13.18,9.62c-1.66,1.21-1.43,3.76,.41,4.66l28.52,13.88,13.54,17.77-.89,2.51s1.66,2.42,6.27,9.06c4.61,6.65,1.22,8.26,1.22,8.26l3.24,4.12c-.31,.06-1.4,.66-4.93,3.44-5.66,4.46-16.02,14.98-16.02,14.98l10.53,9.04c4.47-8.81,14.55-13.67,14.55-13.67l.84,1.01,7.03-4.4,3.71,4.85-.28,2.14,19.98,27.62,2.81-1.64,21.89,33.38,3.38-1.23-21.64-34.73Zm-86.34-98.91l5.39-4.25c.42-.33,1.03-.26,1.36,.16l9.31,11.69s-11.44-4.33-15.8-5.92c-.72-.26-.87-1.21-.27-1.68Z" style="fill:#263238;"></path><g><path d="M344.29,351.24c-5.69,4.52-15.89,14.87-15.89,14.87l10.53,9.04c4.47-8.81,14.55-13.67,14.55-13.67-2.99-3.66-5.65-6.87-8.87-10.33l-.32,.09Z" style="opacity:.8;"></path><path d="M391.19,388.47l1.43-1.51-18.21-28.34-9.59,6.11-.04,.33,19.98,27.62,2.81-1.64,.06,.1c1.21-.87,2.51-1.82,3.61-2.61l-.04-.07Z" style="opacity:.8;"></path><polygon points="371.94 338.61 370.63 337.16 368.23 338.46 359.45 328.48 355.63 331.06 365.25 344.37 371.94 338.61" style="opacity:.8;"></polygon></g><path d="M331.05,367.56l-.77-.64c4.11-4.91,9.85-9.84,16.17-13.88l.54,.84c-6.23,3.99-11.9,8.85-15.94,13.68Z" style="fill:#263238;"></path><path d="M336,371.66l-.78-.63c4.34-5.35,9.52-9.87,15.42-13.42l.52,.86c-5.79,3.49-10.89,7.93-15.16,13.19Z" style="fill:#263238;"></path><polygon points="361.35 358.09 347.58 341.04 347.53 342.16 360.21 358.81 361.35 358.09" style="opacity:.3;"></polygon><path d="M377.39,368.94c-1.06-1.48-2-3.07-2.78-4.71l.9-.43c.76,1.59,1.67,3.12,2.7,4.56l-.81,.58Z" style="fill:#263238;"></path><path d="M382.26,376.25c-1.06-1.48-2-3.07-2.78-4.71l.9-.43c.76,1.59,1.67,3.12,2.7,4.56l-.81,.58Z" style="fill:#263238;"></path><path d="M387.12,383.57c-1.06-1.48-2-3.07-2.78-4.71l.9-.43c.76,1.59,1.67,3.13,2.7,4.56l-.81,.58Z" style="fill:#263238;"></path></g><path d="M330.66,327.33c.47,.08,4.7,1.36,4.7,1.36l4.64-1.36s3.38,1.89,3.61,2.44c.24,.55,.61,3.12,.61,3.12,0,0,4.97,7.25,5.13,8.59,.16,1.34,1.65,6.44,0,6.84-1.65,.39-3.22-.86-3.22-.86l-.39-2.83s-.16,1.89-1.1,2.2c-.94,.31-1.73-.55-1.73-.55,0,0,.47,1.8-1.02,2.12s-2.83-.39-2.83-.39c0,0,0,1.18-1.57,.86-1.57-.31-4.72-10.48-6.52-10.74-1.81-.26-3.05,.83-3.05,.83-.24-.26,2.75-11.62,2.75-11.62Z" style="fill:#efb9af;"></path><path d="M303.21,319.13s-6.01,.88-8.56,4.33c0,0,1.28-5.36,9.37-5.63l-.81,1.31Z" style="opacity:.3;"></path></g></g></g><g id="freepik--Character_1--inject-58"><g><g><path d="M199.92,225.59s3.27-1,6.6-.39c3.33,.6,5.42,1.72,6.83,1.62,1.41-.1,2.87,.53,1.47,1.94-1.41,1.42-1.63,2.48-3.91,2.52,0,0,1.63,.42,1.71,4.14,.08,3.72-3.57,5.98-3.57,5.98,0,0-.38,2.58-2.84,2.47,0,0-1.41,1.42-3.26,1.18-1.85-.24-7.14-2.97-8.65-5.89s-.43-1.91-2.5-2.85-5.6-3.11-5.6-3.11l4.4-12.01,8.97,4.25" style="fill:#cd7a63;"></path><g><path d="M188.85,235.58l7.14-11.82-1.91-1.69-10.89-15.07s-13.96,15.01-13.89,15.2c.06,.19,17.27,12.12,17.27,12.12l2.28,1.26Z" style="fill:#407BFF;"></path><path d="M188.85,235.58l7.14-11.82-1.91-1.69-10.89-15.07s-13.96,15.01-13.89,15.2c.06,.19,17.27,12.12,17.27,12.12l2.28,1.26Z" style="opacity:.4;"></path></g><polygon points="207.02 232.12 197.97 237.96 200.23 241.71 209.95 236.3 207.02 232.12" style="fill:#263238;"></polygon><polygon points="207.02 232.12 197.97 237.96 200.23 241.71 209.95 236.3 207.02 232.12" style="opacity:.5;"></polygon><path d="M202.25,242.55c-.63-.62-1.29-1.29-1.48-2.16-.19-.86,.32-1.94,1.2-2,.66-.05,1.22,.46,1.63,.97,.42,.51,.82,1.1,1.44,1.32-1.25-.72-2.22-1.9-2.68-3.26-.28-.82-.3-1.88,.4-2.39,.58-.42,1.43-.26,2,.18,.57,.44,.94,1.08,1.32,1.69,.38,.61,1.17,1.75,1.17,1.75-.98-1.07-1.17-2.78-.99-4.21,.06-.51,.28-1.09,.77-1.23,.57-.16,1.1,.35,1.46,.83,.88,1.16,1.7,2.37,2.44,3.62" style="fill:#cd7a63;"></path></g><g><g><g><g><path d="M146.15,145.49s2.01-6.69-.17-19.17c0-.01,.67-.23,.67-.24-.3-1.74-.64-3.36-.98-4.77,0-.04,0-.05,0-.05l15.42,12.03c-.81,3.82-.24,11.45,.24,14.69,0,0,1.46,5.94-6.17,5.36-5.57-.43-9-7.85-9-7.85Z" style="fill:#cd7a63;"></path><path d="M160.77,138.76l-9.28-3.19c.54,3.05,2.77,6.85,9.37,7.86,0,0-.3-3.38-.08-4.67Z" style="opacity:.2;"></path></g><g><path d="M175.65,105.97c1.53,4.04,1.3,12.53-4.61,10.11-5.9-2.42,1.98-17.05,4.61-10.11Z" style="fill:#263238;"></path><path d="M146.42,113.21c-.03,10.61-.27,16.59,4.73,22.31,7.52,8.6,20.58,4.71,23.79-5.7,2.89-9.37,2.46-25.14-7.64-29.92-9.95-4.7-20.85,2.71-20.89,13.32Z" style="fill:#cd7a63;"></path><path d="M145.51,100.66c1.83-5.73,16.82-5.09,20.7-1.85,.58,.48-8.34,4.27-7.81,4.11l-4.16,1.14c-.62-.18-1.9,.47-2.66,2.38,0,0,.83,11.29-4.06,15.68-4.45-2.41-5.59-4.37-6.5-8.27-1.36-5.81,1.9-10.12,4.49-13.19Z" style="fill:#263238;"></path><path d="M161.35,117.24c-.07,1.08,.45,1.99,1.16,2.03,.71,.04,1.34-.81,1.41-1.89,.07-1.08-.45-1.99-1.16-2.03-.71-.04-1.34,.81-1.41,1.89Z" style="fill:#263238;"></path><path d="M171.93,118.14c-.07,1.08,.45,1.99,1.16,2.03,.71,.04,1.34-.81,1.41-1.89,.07-1.08-.45-1.99-1.16-2.03-.71-.04-1.34,.81-1.41,1.89Z" style="fill:#263238;"></path><path d="M168.52,117.31s3.07,5.59,4.03,7.85c-1.59,1.26-4.14,.47-4.14,.47l.11-8.32Z" style="fill:#ad6359;"></path><path d="M159.74,113.92c.15,.1,.34,.12,.51,.03,2.04-1,3.66-.07,3.68-.06,.24,.14,.55,.06,.7-.18,.14-.24,.06-.55-.18-.69-.08-.05-2.12-1.21-4.65,.03-.25,.12-.36,.43-.23,.68,.04,.08,.1,.15,.17,.19Z" style="fill:#263238;"></path></g></g><path d="M162.78,141.88l-6.09-1.16c-1.33-.25-2.2-1.54-1.95-2.87h0c.25-1.33,1.54-2.2,2.87-1.95l6.09,1.16c1.33,.25,2.2,1.54,1.95,2.87h0c-.25,1.33-1.54,2.2-2.87,1.95Z" style="fill:#263238;"></path><path d="M176.8,114.46c.08-.05,.16-.12,.21-.21,.13-.25,.04-.56-.2-.69-2.45-1.34-4.5-.23-4.6-.2-.25,.13-.34,.44-.21,.69,.13,.25,.43,.34,.68,.21,.08-.05,1.67-.88,3.64,.19,.15,.08,.33,.08,.48,0Z" style="fill:#263238;"></path><path d="M141.68,121.75c.67,2.77,2.56,4.97,4.59,6.15,3.05,1.77,5.49-.76,5.41-4.1-.08-3.01-1.75-7.56-5.18-7.97-3.38-.4-5.58,2.75-4.81,5.92Z" style="fill:#cd7a63;"></path><path d="M148.9,122.71c-.13,0-.24-.1-.25-.24-.04-.87-.31-1.73-.79-2.46-.31-.48-.83-1.1-1.58-1.34-.67-.21-1.43-.02-1.8,.46-.08,.11-.24,.13-.35,.04s-.13-.24-.04-.35c.5-.65,1.47-.92,2.35-.63,.9,.28,1.5,1,1.85,1.54,.52,.81,.82,1.75,.86,2.71,0,.14-.1,.26-.24,.26h-.01Z" style="opacity:.2;"></path><path d="M152.31,111.53s.48,22.76,1.6,23.84c4.66,4.49,8.97,4.76,8.97,4.76,0,0-.42,.6-3,.05-2.57-.55-5.52-1.29-6.95-2.95-1.44-1.66-2.14-11.35-2.78-13.81-.64-2.46-1.51-11.89-1.51-11.89h3.67Z" style="fill:#263238;"></path><polygon points="152.1 133.51 146.49 129.69 146.27 127.9 151.48 131.21 152.1 133.51" style="fill:#263238;"></polygon></g><path d="M160.62,128.51c1.34,.29,2.61,.78,3.85,1.33,.19,.08,.4,.05,.51-.13,.09-.16,.05-.43-.13-.51-1.31-.58-2.63-1.11-4.03-1.41-.47-.1-.67,.62-.2,.72h0Z" style="fill:#263238;"></path><path d="M138.47,115.79s16.09-2.68,25.16-3.2c9.08-.52,16.72,.52,17.12-.52,.85-2.19-.93-2.48-.93-2.48,0,0-1.03-19.49-20.94-18.46-19.9,1.03-19.82,21.12-19.82,21.12,0,0-1.84,1.28-.6,3.53Z" style="fill:#407BFF;"></path><path d="M138.47,115.79s16.09-2.68,25.16-3.2c9.08-.52,16.72,.52,17.12-.52,.85-2.19-.93-2.48-.93-2.48,0,0-1.03-19.49-20.94-18.46-19.9,1.03-19.82,21.12-19.82,21.12,0,0-1.84,1.28-.6,3.53Z" style="opacity:.3;"></path><path d="M139.07,112.26s20.64-3.96,40.75-2.66h0s-26.27-3.48-40.75,2.66Z" style="opacity:.3;"></path></g><g><g><path d="M91.49,185.33c-3,2.61-4.72,6.5-5.62,10.44-1.62,7.06-.92,14.44-.22,21.66,.26,2.7,.6,5.59,2.31,7.65,2.51,3.03,11.43,2.77,15.05,1.34l1.45-41.69c-3.52-1.82-9.98-2.02-12.98,.6Z" style="fill:#407BFF;"></path><g style="opacity:.3;"><path d="M91.49,185.33c-3,2.61-4.72,6.5-5.62,10.44-1.62,7.06-.92,14.44-.22,21.66,.26,2.7,.6,5.59,2.31,7.65,2.51,3.03,11.43,2.77,15.05,1.34l1.45-41.69c-3.52-1.82-9.98-2.02-12.98,.6Z"></path></g><path d="M100.44,183.53c-.06,0-.2,43.22-.2,43.22,0,0-4.13,.09-2.84-34.7,.28-7.45,.93-8.68,.93-8.68,1.17,0,1.3,.02,2.1,.16Z" style="opacity:.3;"></path></g><g><path d="M100.6,153.59c-2.22,1.07-3.88,3.11-5.06,5.31-2.12,3.95-2.91,8.47-3.67,12.89-.28,1.66-.55,3.43,.13,4.95,1,2.22,6.37,3.53,8.77,3.26l7.69-24.65c-1.8-1.66-5.63-2.84-7.85-1.77Z" style="fill:#407BFF;"></path><g style="opacity:.3;"><path d="M100.6,153.59c-2.22,1.07-3.88,3.11-5.06,5.31-2.12,3.95-2.91,8.47-3.67,12.89-.28,1.66-.55,3.43,.13,4.95,1,2.22,6.37,3.53,8.77,3.26l7.69-24.65c-1.8-1.66-5.63-2.84-7.85-1.77Z"></path></g></g><path d="M100.2,180.04l6.02-26.07-1.75-.57c-4.95,8.18-6.34,17.07-5.57,26.64h1.31Z" style="opacity:.3;"></path><path d="M136.27,214.18c-.87-19.66-1.73-39.33-2.6-58.99-.05-1.02-.25-2.03-.62-2.96h0c-1.01-2.59-3.1-4.44-5.57-4.94-2.64-.53-5.3-.83-7.96-.63-4.03,.29-8.09,1.77-11.23,4.88-3.38,3.33-5.47,8.3-6.58,13.44-1.11,5.14-1.32,10.49-1.53,15.8-.38,9.75-.76,19.49-1.13,29.24-.23,6.03-.43,12.32,1.56,17.84,3.05,8.47,10.69,13.24,18.18,14.44,3.66,.58,7.57,.41,10.74-1.9,3.39-2.46,5.45-7.06,6.31-11.77s.65-9.61,.43-14.43Z" style="fill:#407BFF;"></path><g style="opacity:.3;"><path d="M136.27,214.18c-.87-19.66-1.73-39.33-2.6-58.99-.05-1.02-.25-2.03-.62-2.96h0c-1.01-2.59-3.1-4.44-5.57-4.94-2.64-.53-5.3-.83-7.96-.63-4.03,.29-8.09,1.77-11.23,4.88-3.38,3.33-5.47,8.3-6.58,13.44-1.11,5.14-1.32,10.49-1.53,15.8-.38,9.75-.76,19.49-1.13,29.24-.23,6.03-.43,12.32,1.56,17.84,3.05,8.47,10.69,13.24,18.18,14.44,3.66,.58,7.57,.41,10.74-1.9,3.39-2.46,5.45-7.06,6.31-11.77s.65-9.61,.43-14.43Z"></path></g><polygon points="124.55 204.13 116.37 211.72 125.13 188.01 124.55 204.13" style="opacity:.3;"></polygon><path d="M112.24,203.58c0-9.77,.36-19.52,.7-29.28,.74-9.16-.66-21.2,7.56-27.44-7.49,6.62-5.9,18.43-6.56,27.48-.45,9.75-.9,19.5-1.7,29.24h0Z" style="opacity:.3;"></path></g><g><path d="M128.16,187.79s-2.24-30.75,0-34.4c2.24-3.65,5.97-10.34,14.36-9.95,8.39,.39,18.94,2.64,18.94,2.64,0,0,17.92,17.63,17.31,17.77-.61,.14-28.29,46.57-28.29,46.57l-22.32-4.89v-17.75Z" style="fill:#407BFF;"></path><g><path d="M178.84,216.5c1.43,4.71,3.02,24.31,3.02,24.31-5,2.77-56.4,.43-57.8-2.44-1.4-2.87,2.8-24.31,2.8-24.31l51.97,2.45Z" style="fill:#407BFF;"></path><path d="M128.64,222.05s7.34,2.72,19.11,4.4c19.96,2.86,32.52-2.4,32.52-2.4v-2.85l-51.64,.84Z" style="opacity:.3;"></path></g><path d="M124.07,215.32c0,4.23,3.22,7.76,7.44,8.15,16.11,1.5,53.38,3.9,53.38-5.95s-3.65-34.4-5.23-47.21c-1.15-9.31-6.01-12.05-6.01-12.05l-6.6-5.52-8.31,.65s-7.14-11.05-16.78-10.82c-9.64,.23-13.79,10.82-13.79,10.82,0,0,5.6-10.3,13.16-8.92,7.56,1.38,11.65,8.92,13.71,16.82,1.11,4.27-12.6,25.03-18.27,22.27-5.67-2.77-5.74-6.15-5.81-13.84-.05-5.22-1.99-9.46-1.99-9.46,0,0,0-6.27-2.17,7.07-1.86,11.45-1.85,33.1-2.49,41.26-.17,2.15-.23,4.54-.23,6.73Z" style="fill:#263238;"></path><g><path d="M141.95,142.57c-9.6-1.78-16.82,10.82-16.82,10.82l1.07,3.43c18.12-21.43,22.21-5.46,25.89,2.32,3.67,7.78-1.82,21.38-1.82,21.38,0,0-37.8,34.55-37.36,34.55s3.22,14.61,3.22,14.61l6.58-4,29.24-33.37c4.24-4.84,6.68-11,6.91-17.43,.12-3.36,.25-6.92,.35-9.5,.26-6.58-7.65-21.03-17.25-22.81Z" style="fill:#407BFF;"></path><path d="M141.95,142.57c-9.6-1.78-16.82,10.82-16.82,10.82l1.07,3.43c18.12-21.43,22.21-5.46,25.89,2.32,3.67,7.78-1.82,21.38-1.82,21.38,0,0-37.8,34.55-37.36,34.55s3.22,14.61,3.22,14.61l6.58-4,29.8-34.01c3.88-4.43,6.11-10.05,6.32-15.94,.13-3.6,.27-7.55,.38-10.35,.26-6.58-7.65-21.03-17.25-22.81Z" style="opacity:.3;"></path></g><g><path d="M190.17,207.49l-.95,.03s-6.6,4.52-8.62,10.68c-.26,.8-.08,1.69,.5,2.31l6.92,7.34c.7,.74,1.93,.34,2.08-.66,.33-2.23,1.21-5.47,3.48-8.04,2.75-3.11,4.39-3.3,4.39-3.3l-7.8-8.35Z" style="fill:#263238;"></path><path d="M190.17,207.49l-.95,.03s-6.6,4.52-8.62,10.68c-.26,.8-.08,1.69,.5,2.31l6.92,7.34c.7,.74,1.93,.34,2.08-.66,.33-2.23,1.21-5.47,3.48-8.04,2.75-3.11,4.39-3.3,4.39-3.3l-7.8-8.35Z" style="opacity:.5;"></path><path d="M220.49,243.98l3.31-4.02-18.95-29.58-2.02,.24-7.16-14.12,2.28-8.9-1.55-2.32-2.74,1.71-5.89-8.77-4.34-1.06-27.82-46.24s-6.06-1.51-7.3,6.43c-1.24,7.94-.57,15.8,1.06,17.7,1.63,1.9,18.31,8.43,18.31,8.43l9.75,15.98,12.42,20.81s-2.01,6.78-.21,9.07c1.8,2.29,8.2,9.68,8.2,9.68l37.48,53.51,2.96-1.93-17.78-26.6Zm-64.46-93.23s.62-6.37,.83-6.81l5.1,8.59-5.93-1.78Z" style="fill:#263238;"></path><path d="M220.49,243.98l3.31-4.02-18.95-29.58-2.02,.24-7.16-14.12,2.28-8.9-1.55-2.32-2.74,1.71-5.89-8.77-4.34-1.06-27.82-46.24s-6.06-1.51-7.3,6.43c-1.24,7.94-.57,15.8,1.06,17.7,1.63,1.9,18.31,8.43,18.31,8.43l9.75,15.98,12.42,20.81s-2.01,6.78-.21,9.07c1.8,2.29,8.2,9.68,8.2,9.68l37.48,53.51,2.96-1.93-17.78-26.6Zm-64.46-93.23s.62-6.37,.83-6.81l5.1,8.59-5.93-1.78Z" style="opacity:.3;"></path><polygon points="183.42 177.15 195.36 196.57 197.95 187.59 196.39 185.27 193.66 186.99 187.77 178.21 183.42 177.15" style="opacity:.3;"></polygon><path d="M189.85,200.24l10.39,15.62-2.4,3.13s-8.31-9.67-8.5-10.19c-.19-.52-.83-2.18-.23-5.1,.6-2.92,.75-3.47,.75-3.47Z" style="opacity:.3;"></path><polygon points="204.85 210.38 197.83 219 217.22 246.68 220.49 243.98 223.8 239.96 204.85 210.38" style="opacity:.4;"></polygon><polygon points="230.37 265.45 230.69 268.13 235.88 274.68 240.31 271.55 235.92 265.01 233.5 263.44 230.37 265.45" style="fill:#263238;"></polygon><polygon points="230.37 265.45 230.69 268.13 235.88 274.68 240.31 271.55 235.92 265.01 233.5 263.44 230.37 265.45" style="opacity:.4;"></polygon></g></g><g><g><path d="M214.45,309.31c-1.12-3.11-2.23-6.23-3.35-9.34-.68-1.9-1.41-3.87-2.9-5.23-1.48-1.36-3.97-1.87-5.5-.56l-3.98,1.64c2.34,5.6,4.68,11.2,7.02,16.81,.66,1.59,1.36,3.23,2.58,4.45,1.22,1.22,3.11,1.94,4.71,1.3,1.58-.63,2.45-2.41,2.51-4.11s-.52-3.35-1.09-4.95Z" style="fill:#263238;"></path><path d="M209.48,436.68c8.59,4.97,16.04,2.98,16.91,7.22,.43,2.12,1.06,5.58-3.95,5.58-8.3,.17-7.58-.12-14.65,0-6.04,.1-12.99,.48-17.79,.64-.07,0-.15,0-.22-.01-1.06-.12-1.82-1.07-1.7-2.13l1.71-10.9c.07-.49-2.54-22.98-2.04-22.98h23.87l-2.14,22.57Z" style="fill:#263238;"></path><path d="M160.21,291.29c1.28,1.12,20.41,38.63,20.41,38.63,0,0,.44,13.14,.24,24.76-.13,7.34,2.16,42.36,3.17,55.39,.19,2.44,1.23,5.09,3.67,5.09l23.23,.05c2.43,0,4.08-2.65,4.08-5.09,.06-15.99-.86-65.91-1.13-78.65-.32-14.97-16.64-48.31-21.63-59.56-4.81-10.85-14.21-34.53-14.21-34.53l-17.82,53.93Z" style="fill:#407BFF;"></path><polygon points="166.87 303.33 172.56 314.23 172.81 263.83 166.87 303.33" style="opacity:.3;"></polygon><g><path d="M189.7,408.02c.09,.27,3.33,7.29,3.33,7.29,0,0-3.33-.65-3.24-7.02" style="opacity:.3;"></path><g style="opacity:.3;"><path d="M208.04,408.6c-.64,2.01-2.12,5.3-3.41,6.97,1.18-.31,2.59-2.2,2.99-3.35,.43-1.22,.65-2.36,.42-3.63Z"></path></g><path d="M198.78,415.22s1.82-5.6,1.82-10.68c0,0,2.3,7.12-1.82,10.68Z" style="opacity:.3;"></path></g><path d="M170.28,311.17c.83,.14,30.7-19.91,30.7-19.91,1.18,.81,7,14.92,5.89,14.23-.1-.06-29.32,18.45-29.32,18.45l-7.28-12.78Z" style="fill:#263238;"></path><path d="M196.59,319.47c-1.88-3.11-3.77-6.22-5.65-9.32-.91-1.51-1.94-3.12-3.59-3.75-1.88-.73-3.98,.04-5.85,.8l-5.18,8.52c2.05,1.91,3.33,4.49,4.9,6.8,1.58,2.32,3.7,4.53,6.46,5.02,2.1,.37,4.23-.31,6.25-.99,1.54-.51,3.26-1.21,3.79-2.74,.5-1.46-.33-3.02-1.13-4.34Z" style="fill:#263238;"></path><polyline points="181.15 364.48 181.92 364.46 214.47 363.75 214.59 370.68 181.15 371.59" style="fill:#263238;"></polyline></g><g><path d="M178.78,240.66s-52.43-8.24-52.01-8.24-3.75,6.75-5,20.14c0,0,1.55,18.44,3.16,28.48,2.04,12.69,1.43,57.71,1.43,57.71,0,0-6.84,43.28-4.59,69.21,.14,1.58,2.86,7.54,4.44,7.54h23.48c1.59,0,3.43-7.69,3.56-9.28,.82-10.22,3.15-38.77,4.11-44.51,1.43-8.58,3.88-18.53,5.55-29.53,1.67-11,5.92-44.72,5.92-44.72,0,0,6.03-15.06,5.82-19.36-.21-4.3,4.13-27.44,4.13-27.44Z" style="fill:#407BFF;"></path><path d="M124.54,238.36c1.06-.3,55.1,3.05,55.1,3.05l1.29,3.23c-20.06,1.43-39.26,.73-57.4-2.58l1-3.69Z" style="opacity:.4;"></path><g style="opacity:.3;"><path d="M150.79,252.77c-.69,4.11-2.57,7.96-5.28,10.78-2.71,2.83-6.24,4.62-9.9,5.03,0,0,6.77,2.29,12.73-3.21,5.96-5.5,2.45-12.6,2.45-12.6Z"></path></g><path d="M147.55,438.06c8.59,4.97,16.04,2.98,16.91,7.22,.43,2.12,1.06,5.58-3.95,5.58-8.3,.17-7.58-.12-14.65,0-6.04,.1-12.99,.48-17.79,.64-.07,0-.15,0-.22-.01-1.06-.12-1.82-1.07-1.7-2.13l1.71-10.9c.07-.49-2.54-22.98-2.04-22.98h23.87l-2.14,22.57Z" style="fill:#263238;"></path><g><path d="M128.89,408.2c.09,.27,3.33,7.29,3.33,7.29,0,0-3.33-.65-3.24-7.02" style="opacity:.3;"></path><g style="opacity:.3;"><path d="M147.23,408.78c-.64,2.01-2.12,5.3-3.41,6.97,1.18-.31,2.59-2.2,2.99-3.35,.43-1.22,.65-2.36,.42-3.63Z"></path></g><path d="M137.97,415.4s1.82-5.6,1.82-10.68c0,0,2.3,7.12-1.82,10.68Z" style="opacity:.3;"></path></g><polygon points="146.34 308.77 165.64 311.41 163.8 325.16 144.85 321.17 146.34 308.77" style="fill:#263238;"></polygon><g><g><path d="M147.13,291.06h-25.5s-4.97,32.66-.68,37.14c4.29,4.48,23.02,8.21,25.05,1.61s6.09-33.87,1.13-38.75Z" style="fill:#407BFF;"></path><path d="M147.13,291.06h-25.5s-4.97,32.66-.68,37.14c4.29,4.48,23.02,8.21,25.05,1.61s6.09-33.87,1.13-38.75Z" style="opacity:.3;"></path></g><path d="M121.79,293.07s6.1,15.72,8.58,15.79c2.45,.07,16.51-15.79,16.51-15.79,0,0-13.27,18.6-16.87,17.52-3.61-1.08-8.05-15.52-8.22-17.52Z" style="opacity:.3;"></path><path d="M131.89,304.49c0,.45-.36,.81-.81,.81s-.81-.36-.81-.81,.36-.81,.81-.81,.81,.36,.81,.81Z" style="opacity:.3;"></path></g><polyline points="123.26 362.73 124.06 362.81 157.2 366.2 156.47 373.09 122.39 369.79" style="fill:#263238;"></polyline></g></g><g><path d="M126.93,168.93s7.21,41.49,22.64,41.49c16.21,0,35.32-8.47,35.32-8.47l-1.7-12.89-25.23,1.12,.28-2.62-4.68-23.23s-3.96-20.92-16.1-19.22c-15.64,2.18-10.53,23.82-10.53,23.82Z" style="fill:#407BFF;"></path><g style="opacity:.3;"><path d="M157.84,190.52c-4.14,3.2-4.59,3.77-6.47,8.1,0,0,2.12-3.56,3.63-4.65,1.52-1.09,2.84-3.46,2.84-3.46Z"></path></g><g><path d="M200.77,209.63s0,.02,0,.03c.02,.05,.02,.04,0-.03Z" style="fill:#cd7a63;"></path><path d="M203.55,196.57c-.94-1.56-4-4.57-4-4.57l-.71-1.78c-3.18-1-15.65-1.15-15.65-1.15l1.26,9.59,.99-.69,10.05,5.21,4.2,3.25s.94,2.77,1.09,3.22c-.46-1.39,3.25,.2,3.95-2.24,.71-2.45-.24-9.26-1.18-10.82Z" style="fill:#cd7a63;"></path></g><g><rect x="179.56" y="188.56" width="5.28" height="14.87" transform="translate(-27.19 29.36) rotate(-8.58)" style="fill:#407BFF;"></rect><rect x="179.56" y="188.56" width="5.28" height="14.87" transform="translate(-27.19 29.36) rotate(-8.58)" style="opacity:.3;"></rect></g></g></g></g></svg>
